<svg xmlns="http://www.w3.org/2000/svg" xmlns:xlink="http://www.w3.org/1999/xlink" width="48" zoomAndPan="magnify" viewBox="0 0 36 36.000001" height="48" preserveAspectRatio="xMidYMid meet" version="1.0"><defs><clipPath id="e30cc284f4"><path d="M 1.289062 0.949219 L 34.808594 0.949219 L 34.808594 34.078125 L 1.289062 34.078125 Z M 1.289062 0.949219 " clip-rule="nonzero"/></clipPath><clipPath id="9598825cd6"><path d="M 9.316406 0.949219 L 26.683594 0.949219 C 31.117188 0.949219 34.710938 4.542969 34.710938 8.976562 L 34.710938 26.050781 C 34.710938 30.484375 31.117188 34.078125 26.683594 34.078125 L 9.316406 34.078125 C 4.882812 34.078125 1.289062 30.484375 1.289062 26.050781 L 1.289062 8.976562 C 1.289062 4.542969 4.882812 0.949219 9.316406 0.949219 Z M 9.316406 0.949219 " clip-rule="nonzero"/></clipPath><clipPath id="593722126a"><path d="M 7.046875 2.886719 L 28.9375 2.886719 L 28.9375 32.074219 L 7.046875 32.074219 Z M 7.046875 2.886719 " clip-rule="nonzero"/></clipPath></defs><g clip-path="url(#e30cc284f4)"><g clip-path="url(#9598825cd6)"><path fill="#ff5757" d="M 1.289062 0.949219 L 34.679688 0.949219 L 34.679688 34.078125 L 1.289062 34.078125 Z M 1.289062 0.949219 " fill-opacity="1" fill-rule="nonzero"/></g></g><path fill="#000000" d="M 18.238281 9.542969 C 20.070312 9.542969 21.558594 11.027344 21.558594 12.859375 L 21.558594 14.261719 L 22.554688 14.261719 L 22.554688 12.859375 C 22.554688 10.480469 20.617188 8.546875 18.238281 8.546875 C 15.855469 8.546875 13.921875 10.480469 13.921875 12.859375 L 13.921875 14.261719 L 14.914062 14.261719 L 14.914062 12.859375 C 14.914062 11.027344 16.40625 9.542969 18.238281 9.542969 " fill-opacity="1" fill-rule="nonzero"/><path fill="#000000" d="M 15.214844 14.859375 L 13.886719 14.859375 C 13.460938 14.859375 13.117188 15.203125 13.117188 15.628906 L 13.117188 21.464844 C 13.117188 21.886719 13.460938 22.234375 13.886719 22.234375 L 22.585938 22.234375 C 23.011719 22.234375 23.355469 21.886719 23.355469 21.464844 L 23.355469 15.628906 C 23.355469 15.203125 23.011719 14.859375 22.585938 14.859375 Z M 19.5 20.789062 C 19.511719 20.875 19.488281 20.960938 19.429688 21.023438 C 19.375 21.089844 19.292969 21.128906 19.207031 21.128906 L 17.269531 21.128906 C 17.183594 21.128906 17.101562 21.089844 17.042969 21.023438 C 16.988281 20.960938 16.960938 20.875 16.972656 20.789062 L 17.25 18.78125 C 16.875 18.484375 16.652344 18.035156 16.652344 17.546875 C 16.652344 16.671875 17.363281 15.964844 18.238281 15.964844 C 19.109375 15.964844 19.820312 16.671875 19.820312 17.546875 C 19.820312 18.035156 19.601562 18.484375 19.222656 18.78125 L 19.5 20.789062 " fill-opacity="1" fill-rule="nonzero"/><g clip-path="url(#593722126a)"><path fill="#000000" d="M 28.484375 6.464844 C 26.105469 6.167969 20.367188 5.242188 18.394531 3.066406 C 18.289062 2.949219 18.144531 2.886719 17.992188 2.886719 C 17.839844 2.886719 17.699219 2.949219 17.589844 3.066406 C 15.621094 5.242188 9.878906 6.167969 7.503906 6.464844 C 7.246094 6.496094 7.054688 6.71875 7.054688 6.976562 L 7.054688 11.667969 C 7.054688 22.871094 15.183594 30.007812 17.675781 31.929688 C 17.863281 32.074219 18.125 32.074219 18.308594 31.929688 C 20.800781 30.007812 28.933594 22.871094 28.933594 11.667969 L 28.933594 6.976562 C 28.933594 6.71875 28.738281 6.496094 28.484375 6.464844 Z M 28.023438 12.445312 C 28.023438 22.398438 20.816406 28.726562 18.609375 30.429688 C 18.425781 30.570312 18.210938 30.640625 17.992188 30.640625 C 17.777344 30.640625 17.558594 30.570312 17.378906 30.429688 C 15.167969 28.726562 7.964844 22.398438 7.964844 12.445312 L 7.964844 8.382812 C 7.964844 7.878906 8.339844 7.449219 8.839844 7.386719 C 10.398438 7.191406 15.605469 6.417969 17.234375 4.625 C 17.429688 4.40625 17.707031 4.285156 17.992188 4.285156 C 18.28125 4.285156 18.558594 4.40625 18.753906 4.625 C 20.378906 6.417969 25.589844 7.191406 27.144531 7.386719 C 27.644531 7.449219 28.023438 7.878906 28.023438 8.382812 L 28.023438 12.445312 " fill-opacity="1" fill-rule="nonzero"/></g></svg>