<svg xmlns="http://www.w3.org/2000/svg" xmlns:xlink="http://www.w3.org/1999/xlink" width="48" zoomAndPan="magnify" viewBox="0 0 36 36.000001" height="48" preserveAspectRatio="xMidYMid meet" version="1.0"><defs><clipPath id="86561c2593"><path d="M 1.289062 0.800781 L 34.808594 0.800781 L 34.808594 33.933594 L 1.289062 33.933594 Z M 1.289062 0.800781 " clip-rule="nonzero"/></clipPath><clipPath id="c706b3e566"><path d="M 9.316406 0.800781 L 26.683594 0.800781 C 31.117188 0.800781 34.710938 4.398438 34.710938 8.828125 L 34.710938 25.90625 C 34.710938 30.339844 31.117188 33.933594 26.683594 33.933594 L 9.316406 33.933594 C 4.882812 33.933594 1.289062 30.339844 1.289062 25.90625 L 1.289062 8.828125 C 1.289062 4.398438 4.882812 0.800781 9.316406 0.800781 Z M 9.316406 0.800781 " clip-rule="nonzero"/></clipPath><clipPath id="cd4f25b89e"><path d="M 12 8 L 28.941406 8 L 28.941406 21 L 12 21 Z M 12 8 " clip-rule="nonzero"/></clipPath><clipPath id="d7e38a28ef"><path d="M 7.046875 6.683594 L 28.941406 6.683594 L 28.941406 28.578125 L 7.046875 28.578125 Z M 7.046875 6.683594 " clip-rule="nonzero"/></clipPath></defs><g clip-path="url(#86561c2593)"><g clip-path="url(#c706b3e566)"><path fill="#0097b2" d="M 1.289062 0.800781 L 34.679688 0.800781 L 34.679688 33.933594 L 1.289062 33.933594 Z M 1.289062 0.800781 " fill-opacity="1" fill-rule="nonzero"/></g></g><g clip-path="url(#cd4f25b89e)"><path fill="#000000" d="M 17.886719 20.90625 C 17.558594 20.90625 17.234375 20.78125 16.984375 20.527344 L 12.609375 16.101562 C 12.511719 16.003906 12.511719 15.839844 12.609375 15.738281 L 14.050781 14.28125 C 14.152344 14.179688 14.3125 14.179688 14.410156 14.28125 L 17.886719 17.796875 L 27.039062 8.539062 C 27.136719 8.4375 27.300781 8.4375 27.398438 8.539062 L 28.839844 9.996094 C 28.9375 10.09375 28.9375 10.257812 28.839844 10.359375 L 18.785156 20.527344 C 18.539062 20.78125 18.210938 20.90625 17.886719 20.90625 Z M 17.886719 20.90625 " fill-opacity="1" fill-rule="nonzero"/></g><g clip-path="url(#d7e38a28ef)"><path fill="#000000" d="M 25.738281 14.546875 C 26.105469 15.503906 26.304688 16.542969 26.304688 17.628906 C 26.304688 22.339844 22.519531 26.167969 17.863281 26.167969 C 13.210938 26.167969 9.421875 22.339844 9.421875 17.628906 C 9.421875 12.921875 13.210938 9.089844 17.863281 9.089844 C 19.976562 9.089844 21.90625 9.878906 23.390625 11.179688 L 25.074219 9.472656 C 23.089844 7.675781 20.550781 6.6875 17.863281 6.6875 C 14.976562 6.6875 12.257812 7.828125 10.214844 9.894531 C 8.171875 11.960938 7.046875 14.707031 7.046875 17.628906 C 7.046875 20.554688 8.171875 23.300781 10.214844 25.367188 C 12.257812 27.433594 14.976562 28.570312 17.863281 28.570312 C 20.753906 28.570312 23.46875 27.433594 25.511719 25.367188 C 27.554688 23.300781 28.679688 20.554688 28.679688 17.628906 C 28.679688 15.898438 28.285156 14.230469 27.539062 12.726562 Z M 25.738281 14.546875 " fill-opacity="1" fill-rule="nonzero"/></g><path fill="#000000" d="M 11.515625 18.308594 L 10.652344 18.308594 C 10.476562 18.308594 10.328125 18.160156 10.328125 17.980469 C 10.328125 17.800781 10.476562 17.652344 10.652344 17.652344 L 11.515625 17.652344 C 11.695312 17.652344 11.839844 17.800781 11.839844 17.980469 C 11.839844 18.160156 11.695312 18.308594 11.515625 18.308594 Z M 11.515625 18.308594 " fill-opacity="1" fill-rule="nonzero"/><path fill="#000000" d="M 18.1875 25.144531 C 18.007812 25.144531 17.863281 24.996094 17.863281 24.816406 L 17.863281 23.941406 C 17.863281 23.761719 18.007812 23.613281 18.1875 23.613281 C 18.367188 23.613281 18.511719 23.761719 18.511719 23.941406 L 18.511719 24.816406 C 18.511719 24.996094 18.367188 25.144531 18.1875 25.144531 Z M 18.1875 25.144531 " fill-opacity="1" fill-rule="nonzero"/><path fill="#000000" d="M 18.1875 11.472656 C 18.007812 11.472656 17.863281 11.324219 17.863281 11.144531 L 17.863281 10.269531 C 17.863281 10.089844 18.007812 9.945312 18.1875 9.945312 C 18.367188 9.945312 18.511719 10.089844 18.511719 10.269531 L 18.511719 11.144531 C 18.511719 11.324219 18.367188 11.472656 18.1875 11.472656 Z M 18.1875 11.472656 " fill-opacity="1" fill-rule="nonzero"/><path fill="#000000" d="M 25.097656 18.328125 L 24.234375 18.328125 C 24.054688 18.328125 23.910156 18.183594 23.910156 18.003906 C 23.910156 17.820312 24.054688 17.675781 24.234375 17.675781 L 25.097656 17.675781 C 25.277344 17.675781 25.421875 17.820312 25.421875 18.003906 C 25.421875 18.183594 25.277344 18.328125 25.097656 18.328125 Z M 25.097656 18.328125 " fill-opacity="1" fill-rule="nonzero"/></svg>