<svg xmlns="http://www.w3.org/2000/svg" xmlns:xlink="http://www.w3.org/1999/xlink" width="48" zoomAndPan="magnify" viewBox="0 0 36 36.000001" height="48" preserveAspectRatio="xMidYMid meet" version="1.0"><defs><clipPath id="ae6b1dee1b"><path d="M 1.289062 0.949219 L 34.808594 0.949219 L 34.808594 34.078125 L 1.289062 34.078125 Z M 1.289062 0.949219 " clip-rule="nonzero"/></clipPath><clipPath id="d5c85fa18b"><path d="M 9.316406 0.949219 L 26.683594 0.949219 C 31.117188 0.949219 34.710938 4.542969 34.710938 8.976562 L 34.710938 26.050781 C 34.710938 30.484375 31.117188 34.078125 26.683594 34.078125 L 9.316406 34.078125 C 4.882812 34.078125 1.289062 30.484375 1.289062 26.050781 L 1.289062 8.976562 C 1.289062 4.542969 4.882812 0.949219 9.316406 0.949219 Z M 9.316406 0.949219 " clip-rule="nonzero"/></clipPath><clipPath id="cf2c165b40"><path d="M 17 13 L 27 13 L 27 25.914062 L 17 25.914062 Z M 17 13 " clip-rule="nonzero"/></clipPath><clipPath id="f12d6f3a4c"><path d="M 9.113281 17.828125 L 18.203125 17.828125 L 18.203125 25.90625 L 9.113281 25.90625 Z M 9.113281 17.828125 " clip-rule="nonzero"/></clipPath><clipPath id="e040d1688a"><path d="M 6.894531 9.128906 L 14 9.128906 L 14 19 L 6.894531 19 Z M 6.894531 9.128906 " clip-rule="nonzero"/></clipPath><clipPath id="6e37c67541"><path d="M 22.144531 9.132812 L 28.785156 9.132812 L 28.785156 18.902344 L 22.144531 18.902344 Z M 22.144531 9.132812 " clip-rule="nonzero"/></clipPath></defs><g clip-path="url(#ae6b1dee1b)"><g clip-path="url(#d5c85fa18b)"><path fill="#ffbd59" d="M 1.289062 0.949219 L 34.679688 0.949219 L 34.679688 34.078125 L 1.289062 34.078125 Z M 1.289062 0.949219 " fill-opacity="1" fill-rule="nonzero"/></g></g><path fill="#000000" d="M 14.460938 11.464844 C 13.585938 11.464844 13.316406 11.488281 13.179688 11.511719 C 12.945312 11.546875 12.746094 11.691406 12.640625 11.902344 L 9.851562 17.46875 C 9.722656 17.734375 9.757812 18.050781 9.945312 18.277344 C 10.128906 18.496094 10.175781 18.546875 10.230469 18.605469 C 10.257812 18.632812 10.289062 18.667969 10.453125 18.867188 C 10.464844 18.878906 10.476562 18.890625 10.488281 18.902344 C 10.5 18.914062 10.511719 18.925781 10.523438 18.9375 C 10.542969 18.90625 10.5625 18.871094 10.585938 18.839844 C 10.617188 18.796875 10.660156 18.753906 10.707031 18.71875 C 10.710938 18.707031 10.714844 18.699219 10.71875 18.691406 C 10.753906 18.632812 10.789062 18.574219 10.824219 18.515625 C 10.871094 18.457031 10.925781 18.40625 10.984375 18.367188 C 10.65625 17.976562 10.851562 18.230469 10.496094 17.800781 L 13.285156 12.234375 C 13.464844 12.207031 13.925781 12.199219 14.460938 12.199219 C 14.609375 12.199219 14.765625 12.199219 14.921875 12.199219 C 14.960938 12.15625 15.007812 12.113281 15.054688 12.078125 C 15.109375 11.820312 15.300781 11.570312 15.542969 11.476562 C 15.1875 11.46875 14.808594 11.464844 14.460938 11.464844 " fill-opacity="1" fill-rule="nonzero"/><g clip-path="url(#cf2c165b40)"><path fill="#000000" d="M 26.046875 20.046875 C 25.988281 19.515625 25.671875 19.195312 25.4375 19.003906 C 25.269531 18.863281 25.105469 18.714844 24.929688 18.554688 C 24.847656 18.484375 24.769531 18.414062 24.6875 18.34375 C 24.558594 18.226562 24.425781 18.113281 24.296875 17.996094 C 24.0625 17.789062 23.828125 17.582031 23.59375 17.375 C 23.441406 17.242188 23.292969 17.105469 23.144531 16.972656 C 22.980469 16.828125 22.8125 16.675781 22.648438 16.53125 C 22.53125 16.429688 22.417969 16.328125 22.304688 16.230469 C 22.207031 16.148438 22.105469 16.058594 22.011719 15.972656 C 21.726562 15.726562 21.441406 15.46875 21.164062 15.222656 L 20.996094 15.074219 C 20.710938 14.824219 20.425781 14.570312 20.144531 14.316406 C 20.085938 14.265625 19.710938 13.910156 19.21875 13.445312 C 19.195312 13.472656 19.167969 13.496094 19.140625 13.519531 C 18.863281 13.746094 18.527344 13.703125 18.257812 13.53125 C 18.914062 14.15625 19.578125 14.789062 19.667969 14.867188 C 19.953125 15.121094 20.234375 15.375 20.519531 15.625 C 20.859375 15.925781 21.199219 16.226562 21.539062 16.527344 C 21.75 16.714844 21.964844 16.894531 22.171875 17.082031 C 22.488281 17.363281 22.800781 17.644531 23.117188 17.925781 C 23.484375 18.25 23.847656 18.570312 24.214844 18.894531 C 24.46875 19.121094 24.71875 19.351562 24.980469 19.570312 C 25.160156 19.71875 25.300781 19.882812 25.328125 20.128906 C 25.347656 20.292969 25.347656 20.453125 25.257812 20.597656 C 25.164062 20.742188 25.046875 20.867188 24.90625 20.96875 C 24.789062 21.054688 24.613281 21.101562 24.4375 21.101562 C 24.253906 21.101562 24.070312 21.050781 23.945312 20.949219 C 23.691406 20.742188 23.421875 20.5625 23.160156 20.371094 C 22.773438 20.089844 22.386719 19.816406 22.003906 19.535156 C 21.554688 19.210938 21.109375 18.886719 20.660156 18.558594 C 20.351562 18.335938 20.042969 18.117188 19.738281 17.890625 C 19.617188 17.800781 19.496094 17.738281 19.34375 17.71875 C 19.324219 17.714844 19.308594 17.714844 19.289062 17.714844 C 19.074219 17.714844 18.90625 17.886719 18.925781 18.113281 C 18.945312 18.285156 19.03125 18.417969 19.164062 18.519531 C 19.5 18.765625 19.839844 19.011719 20.179688 19.257812 C 20.464844 19.464844 20.753906 19.671875 21.039062 19.878906 C 21.472656 20.195312 21.902344 20.511719 22.332031 20.828125 C 22.660156 21.066406 22.988281 21.300781 23.316406 21.535156 C 23.636719 21.761719 23.664062 22.101562 23.527344 22.394531 C 23.402344 22.664062 23.183594 22.789062 22.953125 22.789062 C 22.820312 22.789062 22.683594 22.746094 22.558594 22.671875 C 22.179688 22.441406 21.832031 22.15625 21.472656 21.898438 C 21.007812 21.5625 20.542969 21.230469 20.078125 20.894531 C 19.644531 20.582031 19.210938 20.265625 18.777344 19.949219 C 18.679688 19.875 18.574219 19.832031 18.453125 19.832031 C 18.4375 19.832031 18.421875 19.832031 18.40625 19.835938 C 18.21875 19.851562 18.113281 19.925781 18.0625 20.097656 C 18.011719 20.269531 18.0625 20.441406 18.203125 20.546875 C 18.882812 21.046875 19.566406 21.550781 20.25 22.054688 C 20.671875 22.367188 21.097656 22.675781 21.519531 22.988281 C 21.65625 23.09375 21.71875 23.246094 21.730469 23.417969 C 21.742188 23.613281 21.671875 23.78125 21.554688 23.929688 C 21.414062 24.105469 21.234375 24.199219 21.046875 24.199219 C 20.929688 24.199219 20.808594 24.164062 20.691406 24.085938 C 20.503906 23.96875 20.332031 23.835938 20.152344 23.707031 C 19.960938 23.574219 19.777344 23.433594 19.585938 23.296875 C 19.308594 23.101562 19.03125 22.914062 18.757812 22.71875 C 18.382812 22.449219 18.007812 22.179688 17.632812 21.910156 C 17.554688 21.855469 17.476562 21.828125 17.40625 21.828125 C 17.308594 21.828125 17.21875 21.875 17.132812 21.972656 C 16.988281 22.140625 16.988281 22.382812 17.144531 22.503906 C 17.335938 22.660156 17.53125 22.808594 17.726562 22.953125 C 18.203125 23.316406 18.679688 23.679688 19.15625 24.042969 C 19.25 24.113281 19.261719 24.183594 19.214844 24.289062 C 19.082031 24.59375 18.820312 24.738281 18.539062 24.738281 C 18.457031 24.738281 18.375 24.726562 18.289062 24.703125 C 18.121094 24.652344 17.96875 24.539062 17.808594 24.457031 C 17.800781 24.453125 17.75 24.414062 17.675781 24.355469 C 17.679688 24.363281 17.679688 24.367188 17.679688 24.375 C 17.710938 24.589844 17.632812 24.800781 17.507812 24.96875 C 17.480469 25.003906 17.449219 25.039062 17.410156 25.070312 C 17.4375 25.089844 17.457031 25.097656 17.480469 25.109375 C 17.515625 25.125 17.554688 25.152344 17.597656 25.175781 C 17.730469 25.253906 17.890625 25.347656 18.09375 25.40625 C 18.238281 25.449219 18.390625 25.46875 18.539062 25.46875 C 19.121094 25.46875 19.632812 25.132812 19.875 24.589844 C 19.894531 24.542969 19.914062 24.492188 19.925781 24.445312 C 20.046875 24.53125 20.171875 24.621094 20.308594 24.707031 C 20.539062 24.855469 20.792969 24.929688 21.046875 24.929688 C 21.457031 24.929688 21.839844 24.738281 22.117188 24.386719 C 22.34375 24.101562 22.460938 23.769531 22.453125 23.429688 C 22.617188 23.488281 22.785156 23.519531 22.953125 23.519531 C 23.484375 23.519531 23.941406 23.21875 24.179688 22.710938 C 24.316406 22.417969 24.355469 22.109375 24.304688 21.828125 C 24.347656 21.832031 24.394531 21.832031 24.4375 21.832031 C 24.773438 21.832031 25.085938 21.738281 25.324219 21.5625 C 25.539062 21.410156 25.71875 21.21875 25.859375 21 C 26.082031 20.660156 26.074219 20.3125 26.046875 20.046875 " fill-opacity="1" fill-rule="nonzero"/></g><path fill="#000000" d="M 18.515625 10.433594 C 18.136719 10.433594 17.761719 10.488281 17.390625 10.566406 C 16.882812 10.671875 16.40625 10.757812 15.960938 11.023438 C 15.917969 11.050781 14.824219 11.550781 14.132812 12.335938 C 13.976562 12.617188 13.824219 12.894531 13.671875 13.179688 C 13.644531 13.222656 13.628906 13.277344 13.625 13.332031 C 13.59375 13.625 13.566406 13.917969 13.535156 14.210938 C 13.507812 14.46875 13.496094 14.730469 13.433594 14.980469 C 13.359375 15.257812 13.238281 15.523438 13.125 15.789062 C 13.054688 15.964844 13.050781 16.132812 13.144531 16.292969 C 13.320312 16.59375 13.585938 16.753906 13.921875 16.789062 C 14.011719 16.800781 14.105469 16.804688 14.195312 16.804688 C 14.441406 16.804688 14.683594 16.769531 14.917969 16.695312 C 15.222656 16.59375 15.488281 16.40625 15.722656 16.179688 C 15.960938 15.949219 16.160156 15.6875 16.308594 15.390625 C 16.425781 15.15625 16.507812 14.917969 16.546875 14.660156 C 16.574219 14.515625 16.578125 14.359375 16.683594 14.238281 C 16.726562 14.1875 16.761719 14.132812 16.804688 14.082031 C 16.988281 13.867188 17.222656 13.710938 17.5 13.667969 C 17.589844 13.65625 17.683594 13.648438 17.777344 13.648438 C 17.988281 13.648438 18.203125 13.6875 18.40625 13.761719 C 18.515625 13.804688 18.617188 13.847656 18.699219 13.9375 C 18.835938 14.089844 18.980469 14.242188 19.128906 14.382812 C 19.304688 14.550781 19.488281 14.707031 19.667969 14.867188 C 19.953125 15.121094 20.234375 15.375 20.519531 15.625 C 20.859375 15.925781 21.199219 16.226562 21.539062 16.527344 C 21.75 16.714844 21.964844 16.894531 22.171875 17.082031 C 22.488281 17.363281 22.800781 17.644531 23.117188 17.925781 C 23.484375 18.25 23.847656 18.570312 24.214844 18.894531 C 24.46875 19.121094 24.71875 19.351562 24.980469 19.570312 C 24.988281 19.574219 24.996094 19.578125 25.003906 19.578125 C 25.09375 19.578125 25.304688 19.277344 25.546875 18.925781 C 25.75 18.636719 25.960938 18.242188 26.097656 17.917969 C 26.117188 17.875 26.117188 17.808594 26.101562 17.765625 C 25.949219 17.425781 25.789062 17.089844 25.632812 16.757812 C 25.382812 16.226562 25.128906 15.699219 24.882812 15.167969 C 24.621094 14.617188 24.363281 14.066406 24.105469 13.515625 C 23.945312 13.175781 23.785156 12.832031 23.625 12.488281 C 23.4375 12.09375 23.246094 11.699219 23.058594 11.304688 C 23.035156 11.246094 22.996094 11.226562 22.929688 11.21875 C 22.5625 11.195312 22.191406 11.175781 21.824219 11.121094 C 21.574219 11.085938 21.332031 11.007812 21.085938 10.941406 C 20.738281 10.847656 20.394531 10.742188 20.050781 10.648438 C 19.589844 10.527344 19.121094 10.453125 18.648438 10.4375 C 18.605469 10.4375 18.558594 10.433594 18.515625 10.433594 Z M 18.515625 11.117188 C 18.550781 11.117188 18.589844 11.121094 18.625 11.121094 C 19.042969 11.132812 19.460938 11.199219 19.878906 11.308594 C 20.058594 11.355469 20.242188 11.410156 20.417969 11.460938 C 20.578125 11.507812 20.746094 11.554688 20.910156 11.601562 C 20.960938 11.613281 21.011719 11.628906 21.0625 11.644531 C 21.273438 11.703125 21.492188 11.765625 21.734375 11.800781 C 22.023438 11.839844 22.308594 11.863281 22.585938 11.882812 L 22.613281 11.9375 C 22.75 12.21875 22.882812 12.503906 23.015625 12.785156 C 23.140625 13.050781 23.265625 13.316406 23.390625 13.578125 L 23.5 13.8125 C 23.589844 14.003906 23.679688 14.195312 23.769531 14.390625 C 23.9375 14.746094 24.105469 15.105469 24.273438 15.460938 C 24.398438 15.730469 24.523438 15.996094 24.652344 16.261719 C 24.773438 16.523438 24.898438 16.785156 25.023438 17.050781 C 25.144531 17.308594 25.269531 17.574219 25.390625 17.839844 C 25.273438 18.089844 25.128906 18.34375 24.996094 18.53125 C 24.976562 18.5625 24.957031 18.59375 24.933594 18.625 C 24.921875 18.613281 24.910156 18.605469 24.898438 18.59375 C 24.816406 18.519531 24.738281 18.449219 24.65625 18.378906 C 24.527344 18.261719 24.394531 18.148438 24.265625 18.035156 C 24.03125 17.828125 23.796875 17.621094 23.5625 17.410156 C 23.410156 17.277344 23.261719 17.144531 23.109375 17.007812 C 22.949219 16.863281 22.78125 16.714844 22.617188 16.566406 C 22.5 16.464844 22.386719 16.363281 22.273438 16.269531 C 22.175781 16.183594 22.074219 16.097656 21.980469 16.011719 C 21.695312 15.761719 21.410156 15.507812 21.128906 15.257812 L 20.964844 15.113281 C 20.679688 14.859375 20.394531 14.605469 20.113281 14.355469 C 20.058594 14.308594 20.007812 14.261719 19.953125 14.214844 C 19.824219 14.101562 19.703125 13.996094 19.589844 13.882812 C 19.441406 13.746094 19.300781 13.59375 19.191406 13.476562 C 18.996094 13.257812 18.757812 13.167969 18.644531 13.125 C 18.363281 13.015625 18.074219 12.964844 17.777344 12.964844 C 17.648438 12.964844 17.523438 12.972656 17.394531 12.992188 C 16.980469 13.058594 16.601562 13.277344 16.296875 13.632812 C 16.257812 13.675781 16.230469 13.714844 16.207031 13.746094 C 16.195312 13.761719 16.179688 13.78125 16.175781 13.789062 C 15.957031 14.042969 15.917969 14.324219 15.894531 14.492188 C 15.890625 14.507812 15.886719 14.527344 15.882812 14.546875 C 15.855469 14.726562 15.796875 14.902344 15.707031 15.082031 C 15.597656 15.300781 15.449219 15.503906 15.261719 15.6875 C 15.074219 15.867188 14.894531 15.984375 14.710938 16.042969 C 14.550781 16.09375 14.378906 16.121094 14.195312 16.121094 C 14.128906 16.121094 14.058594 16.117188 13.992188 16.109375 C 13.875 16.097656 13.8125 16.0625 13.765625 16.007812 C 13.777344 15.980469 13.789062 15.957031 13.796875 15.929688 C 13.902344 15.6875 14.007812 15.4375 14.082031 15.15625 C 14.148438 14.914062 14.167969 14.679688 14.1875 14.46875 C 14.191406 14.40625 14.199219 14.347656 14.203125 14.289062 C 14.222656 14.128906 14.238281 13.972656 14.253906 13.820312 C 14.261719 13.699219 14.273438 13.578125 14.289062 13.460938 C 14.414062 13.222656 14.546875 12.984375 14.679688 12.742188 C 15.03125 12.363281 15.574219 11.980469 16.21875 11.65625 C 16.257812 11.640625 16.277344 11.628906 16.304688 11.613281 C 16.621094 11.421875 16.988281 11.347656 17.414062 11.257812 L 17.523438 11.234375 C 17.902344 11.15625 18.21875 11.117188 18.515625 11.117188 " fill-opacity="1" fill-rule="nonzero"/><g clip-path="url(#f12d6f3a4c)"><path fill="#000000" d="M 16.648438 23.183594 Z M 16.363281 23.476562 Z M 15.421875 23.886719 C 15.433594 23.886719 15.449219 23.886719 15.460938 23.886719 C 15.574219 23.902344 15.675781 23.972656 15.726562 24.078125 C 15.777344 24.1875 15.769531 24.277344 15.769531 24.3125 C 15.765625 24.359375 15.761719 24.40625 15.757812 24.449219 C 15.753906 24.515625 15.746094 24.582031 15.753906 24.625 C 15.78125 24.761719 15.859375 24.886719 16 25.003906 C 16.191406 25.167969 16.359375 25.234375 16.550781 25.222656 C 16.609375 25.21875 16.65625 25.195312 16.707031 25.148438 C 16.898438 24.980469 17.394531 24.375 17.488281 24.195312 C 17.511719 24.148438 17.535156 24.078125 17.503906 23.957031 C 17.429688 23.691406 17.261719 23.511719 16.992188 23.402344 C 16.753906 23.304688 16.640625 23.351562 16.5625 23.410156 C 16.472656 23.472656 16.386719 23.476562 16.355469 23.476562 C 16.257812 23.484375 16.160156 23.449219 16.085938 23.378906 C 16.015625 23.304688 15.980469 23.203125 15.988281 23.101562 L 15.992188 23.09375 C 15.992188 23.0625 15.996094 23 16.019531 22.933594 C 16.074219 22.796875 16.109375 22.605469 15.910156 22.304688 C 15.757812 22.066406 15.546875 21.917969 15.273438 21.859375 C 15.082031 21.816406 14.933594 21.839844 14.792969 21.933594 C 14.773438 21.945312 14.75 21.960938 14.71875 21.980469 L 14.679688 22.003906 C 14.554688 22.078125 14.402344 22.066406 14.289062 21.972656 C 14.179688 21.878906 14.140625 21.726562 14.191406 21.589844 C 14.339844 21.183594 14.253906 20.867188 13.910156 20.570312 C 13.5625 20.269531 13.242188 20.230469 12.875 20.445312 C 12.738281 20.523438 12.570312 20.5 12.460938 20.386719 C 12.355469 20.269531 12.339844 20.097656 12.421875 19.964844 C 12.703125 19.523438 12.671875 19.160156 12.324219 18.816406 C 11.984375 18.472656 11.632812 18.421875 11.21875 18.660156 C 10.8125 19.128906 10.691406 19.277344 10.636719 19.339844 L 10.613281 19.367188 C 10.542969 19.453125 10.472656 19.539062 10.402344 19.625 C 10.285156 19.773438 10.164062 19.921875 10.035156 20.066406 C 9.878906 20.25 9.800781 20.40625 9.789062 20.578125 C 9.773438 20.855469 9.859375 21.085938 10.054688 21.285156 C 10.210938 21.445312 10.402344 21.539062 10.632812 21.570312 C 10.800781 21.59375 10.953125 21.5625 11.101562 21.472656 C 11.132812 21.453125 11.167969 21.425781 11.214844 21.394531 C 11.242188 21.375 11.269531 21.355469 11.300781 21.332031 C 11.414062 21.25 11.566406 21.25 11.683594 21.328125 C 11.800781 21.410156 11.855469 21.554688 11.820312 21.695312 C 11.816406 21.707031 11.816406 21.714844 11.8125 21.71875 C 11.808594 21.75 11.800781 21.792969 11.773438 21.839844 C 11.703125 21.988281 11.703125 22.144531 11.769531 22.316406 C 11.90625 22.660156 12.136719 22.878906 12.480469 22.976562 C 12.738281 23.050781 12.925781 23.019531 13.097656 22.878906 C 13.121094 22.859375 13.140625 22.84375 13.164062 22.828125 C 13.171875 22.824219 13.183594 22.816406 13.199219 22.804688 C 13.308594 22.726562 13.457031 22.722656 13.574219 22.800781 C 13.6875 22.875 13.746094 23.011719 13.71875 23.148438 C 13.71875 23.164062 13.714844 23.179688 13.714844 23.191406 C 13.707031 23.230469 13.699219 23.277344 13.679688 23.335938 C 13.640625 23.433594 13.644531 23.542969 13.703125 23.726562 C 13.804688 24.039062 14.175781 24.375 14.574219 24.378906 C 14.785156 24.382812 14.925781 24.320312 15.035156 24.164062 C 15.070312 24.121094 15.101562 24.082031 15.128906 24.046875 C 15.140625 24.035156 15.152344 24.023438 15.164062 24.007812 C 15.226562 23.929688 15.324219 23.886719 15.421875 23.886719 Z M 16.5 25.90625 C 16.167969 25.90625 15.859375 25.78125 15.5625 25.527344 C 15.363281 25.355469 15.222656 25.160156 15.144531 24.941406 C 14.972656 25.027344 14.78125 25.066406 14.5625 25.0625 C 13.921875 25.054688 13.261719 24.558594 13.066406 23.9375 C 13.039062 23.859375 13.011719 23.765625 12.996094 23.671875 C 12.78125 23.71875 12.546875 23.707031 12.296875 23.632812 C 11.753906 23.476562 11.355469 23.109375 11.144531 22.570312 C 11.101562 22.453125 11.070312 22.339844 11.058594 22.222656 C 10.890625 22.265625 10.722656 22.273438 10.546875 22.25 C 10.164062 22.199219 9.839844 22.035156 9.574219 21.765625 C 9.25 21.429688 9.089844 21.003906 9.117188 20.539062 C 9.136719 20.210938 9.273438 19.90625 9.535156 19.613281 C 9.652344 19.476562 9.765625 19.339844 9.882812 19.191406 C 9.957031 19.101562 10.027344 19.015625 10.101562 18.925781 L 10.121094 18.902344 C 10.179688 18.828125 10.308594 18.675781 10.75 18.164062 C 10.773438 18.136719 10.800781 18.117188 10.828125 18.097656 C 11.527344 17.671875 12.226562 17.753906 12.796875 18.328125 C 13.175781 18.707031 13.335938 19.160156 13.265625 19.625 C 13.636719 19.609375 14.003906 19.753906 14.347656 20.050781 C 14.71875 20.371094 14.914062 20.75 14.933594 21.164062 C 15.085938 21.144531 15.25 21.152344 15.417969 21.191406 C 15.867188 21.292969 16.222656 21.539062 16.472656 21.925781 C 16.632812 22.171875 16.71875 22.417969 16.734375 22.660156 C 16.894531 22.660156 17.066406 22.691406 17.242188 22.765625 C 17.707031 22.953125 18.019531 23.300781 18.152344 23.769531 C 18.226562 24.039062 18.203125 24.292969 18.082031 24.519531 C 17.925781 24.808594 17.363281 25.472656 17.148438 25.664062 C 16.988281 25.808594 16.804688 25.886719 16.601562 25.902344 C 16.566406 25.90625 16.53125 25.90625 16.5 25.90625 " fill-opacity="1" fill-rule="nonzero"/></g><path fill="#000000" d="M 11.503906 21.953125 C 11.429688 21.953125 11.351562 21.925781 11.289062 21.875 C 11.148438 21.753906 11.128906 21.539062 11.246094 21.390625 L 12.449219 19.925781 C 12.566406 19.78125 12.78125 19.761719 12.921875 19.882812 C 13.066406 20.003906 13.085938 20.21875 12.964844 20.363281 L 11.765625 21.832031 C 11.699219 21.910156 11.601562 21.953125 11.503906 21.953125 " fill-opacity="1" fill-rule="nonzero"/><path fill="#000000" d="M 13.382812 23.417969 C 13.308594 23.417969 13.234375 23.394531 13.171875 23.34375 C 13.027344 23.226562 13.003906 23.011719 13.117188 22.863281 L 14.273438 21.398438 C 14.390625 21.25 14.601562 21.226562 14.746094 21.34375 C 14.890625 21.460938 14.914062 21.675781 14.796875 21.824219 L 13.644531 23.289062 C 13.578125 23.375 13.480469 23.417969 13.382812 23.417969 " fill-opacity="1" fill-rule="nonzero"/><path fill="#000000" d="M 15.351562 24.640625 C 15.28125 24.640625 15.207031 24.613281 15.144531 24.566406 C 15 24.449219 14.972656 24.234375 15.089844 24.085938 L 16.003906 22.914062 C 16.117188 22.765625 16.332031 22.738281 16.476562 22.855469 C 16.621094 22.972656 16.644531 23.1875 16.53125 23.335938 L 15.617188 24.507812 C 15.550781 24.59375 15.453125 24.640625 15.351562 24.640625 " fill-opacity="1" fill-rule="nonzero"/><g clip-path="url(#e040d1688a)"><path fill="#000000" d="M 11.414062 9.949219 C 11.339844 9.949219 11.316406 9.96875 11.285156 10.035156 C 11.164062 10.292969 11.03125 10.558594 10.882812 10.855469 C 10.625 11.371094 10.367188 11.890625 10.109375 12.40625 C 10.03125 12.558594 9.953125 12.710938 9.875 12.867188 C 9.777344 13.058594 9.679688 13.253906 9.582031 13.449219 C 9.523438 13.566406 9.46875 13.683594 9.410156 13.800781 C 9.355469 13.917969 9.300781 14.035156 9.242188 14.148438 C 9.078125 14.480469 8.910156 14.816406 8.746094 15.140625 L 8.667969 15.292969 C 8.597656 15.433594 8.527344 15.570312 8.457031 15.710938 C 8.359375 15.910156 8.257812 16.105469 8.15625 16.304688 C 8.09375 16.433594 8.03125 16.558594 7.972656 16.683594 C 7.878906 16.871094 7.78125 17.066406 7.683594 17.257812 C 7.652344 17.324219 7.667969 17.421875 7.71875 17.453125 C 7.835938 17.527344 7.964844 17.59375 8.097656 17.664062 L 8.3125 17.773438 C 8.609375 17.929688 8.917969 18.089844 9.226562 18.238281 C 9.265625 18.253906 9.324219 18.265625 9.375 18.265625 C 9.40625 18.261719 9.445312 18.261719 9.507812 18.132812 C 9.699219 17.738281 9.894531 17.339844 10.085938 16.957031 L 10.226562 16.675781 C 10.445312 16.230469 10.664062 15.789062 10.886719 15.347656 C 11.03125 15.0625 11.175781 14.773438 11.320312 14.484375 C 11.503906 14.117188 11.691406 13.746094 11.875 13.378906 C 11.996094 13.136719 12.117188 12.894531 12.234375 12.652344 C 12.332031 12.453125 12.429688 12.257812 12.527344 12.0625 C 12.699219 11.714844 12.882812 11.347656 13.066406 10.984375 C 13.113281 10.894531 13.113281 10.777344 13.011719 10.722656 C 12.925781 10.675781 12.839844 10.632812 12.75 10.585938 C 12.707031 10.5625 12.660156 10.539062 12.617188 10.515625 C 12.53125 10.472656 12.445312 10.429688 12.359375 10.382812 C 12.160156 10.28125 11.957031 10.171875 11.753906 10.074219 C 11.71875 10.054688 11.6875 10.035156 11.652344 10.019531 C 11.597656 9.988281 11.519531 9.945312 11.492188 9.949219 L 11.441406 9.949219 C 11.433594 9.949219 11.421875 9.949219 11.414062 9.949219 Z M 9.363281 18.949219 C 9.210938 18.949219 9.0625 18.914062 8.9375 18.855469 C 8.621094 18.703125 8.308594 18.539062 8.003906 18.382812 L 7.792969 18.273438 C 7.652344 18.199219 7.503906 18.121094 7.363281 18.03125 C 7.015625 17.8125 6.894531 17.324219 7.089844 16.941406 C 7.183594 16.757812 7.277344 16.566406 7.367188 16.378906 C 7.429688 16.25 7.492188 16.125 7.558594 15.996094 C 7.65625 15.796875 7.757812 15.597656 7.859375 15.398438 C 7.929688 15.257812 8 15.121094 8.070312 14.980469 L 8.148438 14.828125 C 8.308594 14.503906 8.476562 14.171875 8.640625 13.839844 C 8.699219 13.730469 8.75 13.617188 8.804688 13.503906 C 8.863281 13.382812 8.921875 13.261719 8.980469 13.140625 C 9.078125 12.945312 9.179688 12.746094 9.277344 12.550781 C 9.355469 12.402344 9.433594 12.25 9.507812 12.097656 C 9.769531 11.578125 10.027344 11.0625 10.28125 10.546875 C 10.429688 10.253906 10.558594 9.988281 10.683594 9.734375 C 10.835938 9.417969 11.109375 9.253906 11.457031 9.265625 C 11.671875 9.253906 11.847656 9.347656 11.972656 9.417969 C 12 9.429688 12.023438 9.445312 12.050781 9.457031 C 12.257812 9.5625 12.464844 9.671875 12.667969 9.773438 C 12.75 9.820312 12.835938 9.863281 12.921875 9.90625 C 12.964844 9.929688 13.007812 9.953125 13.050781 9.972656 C 13.140625 10.019531 13.238281 10.070312 13.332031 10.121094 C 13.75 10.347656 13.890625 10.855469 13.664062 11.300781 C 13.484375 11.65625 13.308594 12.011719 13.128906 12.371094 C 13.03125 12.566406 12.933594 12.761719 12.839844 12.957031 C 12.71875 13.199219 12.597656 13.445312 12.476562 13.6875 C 12.292969 14.058594 12.105469 14.425781 11.917969 14.796875 C 11.773438 15.082031 11.628906 15.371094 11.488281 15.660156 C 11.265625 16.101562 11.046875 16.539062 10.828125 16.980469 L 10.6875 17.261719 C 10.496094 17.644531 10.300781 18.042969 10.113281 18.433594 C 9.914062 18.84375 9.617188 18.941406 9.398438 18.949219 C 9.386719 18.949219 9.375 18.949219 9.363281 18.949219 " fill-opacity="1" fill-rule="nonzero"/></g><g clip-path="url(#6e37c67541)"><path fill="#000000" d="M 24.4375 9.832031 C 24.226562 9.925781 24.011719 10.03125 23.804688 10.128906 L 23.625 10.214844 C 23.546875 10.253906 23.46875 10.292969 23.386719 10.332031 C 23.234375 10.40625 23.078125 10.484375 22.917969 10.558594 C 22.855469 10.585938 22.808594 10.699219 22.820312 10.742188 C 22.851562 10.824219 22.890625 10.910156 22.933594 11 L 22.945312 11.023438 C 23.035156 11.210938 23.121094 11.398438 23.210938 11.582031 C 23.335938 11.84375 23.460938 12.101562 23.585938 12.363281 C 23.660156 12.519531 23.730469 12.679688 23.800781 12.832031 C 23.863281 12.972656 23.929688 13.113281 23.996094 13.253906 C 24.082031 13.445312 24.171875 13.628906 24.261719 13.816406 C 24.347656 13.992188 24.429688 14.167969 24.511719 14.339844 C 24.617188 14.566406 24.722656 14.792969 24.828125 15.015625 C 24.914062 15.203125 25 15.394531 25.089844 15.582031 C 25.28125 15.988281 25.46875 16.390625 25.660156 16.792969 L 26.027344 17.574219 C 26.117188 17.761719 26.207031 17.953125 26.292969 18.140625 C 26.308594 18.171875 26.382812 18.203125 26.417969 18.199219 C 26.582031 18.136719 26.730469 18.078125 26.863281 18.011719 C 27.210938 17.851562 27.5 17.710938 27.765625 17.574219 C 27.875 17.515625 27.996094 17.449219 28.089844 17.371094 C 28.117188 17.347656 28.113281 17.285156 28.101562 17.253906 C 27.921875 16.863281 27.734375 16.46875 27.554688 16.085938 L 27.40625 15.773438 C 27.160156 15.25 26.917969 14.726562 26.667969 14.203125 C 26.566406 13.984375 26.464844 13.769531 26.363281 13.554688 C 26.25 13.316406 26.136719 13.078125 26.023438 12.839844 C 25.855469 12.476562 25.6875 12.113281 25.515625 11.75 L 25.234375 11.148438 C 25.046875 10.75 24.863281 10.355469 24.679688 9.957031 C 24.621094 9.832031 24.578125 9.816406 24.53125 9.816406 C 24.515625 9.820312 24.5 9.820312 24.480469 9.824219 C 24.46875 9.824219 24.449219 9.828125 24.4375 9.832031 Z M 26.410156 18.882812 C 26.117188 18.882812 25.8125 18.707031 25.6875 18.4375 C 25.597656 18.246094 25.507812 18.058594 25.417969 17.867188 L 25.054688 17.089844 C 24.863281 16.683594 24.671875 16.28125 24.480469 15.875 C 24.394531 15.6875 24.304688 15.496094 24.21875 15.308594 C 24.113281 15.082031 24.007812 14.859375 23.90625 14.636719 C 23.824219 14.464844 23.738281 14.289062 23.65625 14.117188 C 23.566406 13.929688 23.476562 13.738281 23.386719 13.550781 C 23.320312 13.40625 23.253906 13.261719 23.1875 13.117188 C 23.121094 12.964844 23.050781 12.808594 22.976562 12.65625 C 22.855469 12.398438 22.730469 12.140625 22.605469 11.882812 C 22.515625 11.695312 22.425781 11.507812 22.339844 11.320312 L 22.328125 11.300781 C 22.277344 11.195312 22.226562 11.085938 22.183594 10.964844 C 22.054688 10.578125 22.265625 10.109375 22.640625 9.933594 C 22.792969 9.863281 22.945312 9.789062 23.097656 9.714844 C 23.175781 9.675781 23.257812 9.636719 23.339844 9.597656 L 23.515625 9.511719 C 23.730469 9.410156 23.949219 9.304688 24.167969 9.203125 C 24.253906 9.164062 24.335938 9.152344 24.398438 9.144531 C 24.410156 9.144531 24.425781 9.140625 24.441406 9.140625 L 24.464844 9.132812 L 24.492188 9.132812 C 24.738281 9.125 25.078125 9.214844 25.289062 9.667969 C 25.472656 10.0625 25.65625 10.457031 25.84375 10.855469 L 26.125 11.457031 C 26.292969 11.820312 26.460938 12.183594 26.632812 12.542969 C 26.746094 12.78125 26.855469 13.019531 26.96875 13.257812 C 27.074219 13.472656 27.175781 13.691406 27.277344 13.90625 C 27.523438 14.429688 27.769531 14.953125 28.015625 15.476562 L 28.164062 15.792969 C 28.34375 16.175781 28.53125 16.570312 28.710938 16.964844 C 28.835938 17.238281 28.8125 17.644531 28.523438 17.894531 C 28.375 18.019531 28.210938 18.109375 28.070312 18.183594 C 27.796875 18.324219 27.503906 18.464844 27.148438 18.632812 C 26.992188 18.707031 26.828125 18.773438 26.640625 18.84375 C 26.566406 18.867188 26.488281 18.882812 26.410156 18.882812 " fill-opacity="1" fill-rule="nonzero"/></g></svg>