<svg xmlns="http://www.w3.org/2000/svg" xmlns:xlink="http://www.w3.org/1999/xlink" width="48" zoomAndPan="magnify" viewBox="0 0 36 36.000001" height="48" preserveAspectRatio="xMidYMid meet" version="1.0"><defs><clipPath id="f01ebe14c2"><path d="M 1.289062 0.949219 L 34.808594 0.949219 L 34.808594 34.078125 L 1.289062 34.078125 Z M 1.289062 0.949219 " clip-rule="nonzero"/></clipPath><clipPath id="cb912d28b8"><path d="M 9.316406 0.949219 L 26.683594 0.949219 C 31.117188 0.949219 34.710938 4.542969 34.710938 8.976562 L 34.710938 26.050781 C 34.710938 30.484375 31.117188 34.078125 26.683594 34.078125 L 9.316406 34.078125 C 4.882812 34.078125 1.289062 30.484375 1.289062 26.050781 L 1.289062 8.976562 C 1.289062 4.542969 4.882812 0.949219 9.316406 0.949219 Z M 9.316406 0.949219 " clip-rule="nonzero"/></clipPath><clipPath id="0a38d6962d"><path d="M 15 27 L 17 27 L 17 28.167969 L 15 28.167969 Z M 15 27 " clip-rule="nonzero"/></clipPath><clipPath id="60927984b7"><path d="M 17 27 L 19 27 L 19 28.167969 L 17 28.167969 Z M 17 27 " clip-rule="nonzero"/></clipPath><clipPath id="01258c95bd"><path d="M 18 27 L 20 27 L 20 28.167969 L 18 28.167969 Z M 18 27 " clip-rule="nonzero"/></clipPath><clipPath id="8f55c579bc"><path d="M 23 13 L 28.652344 13 L 28.652344 21 L 23 21 Z M 23 13 " clip-rule="nonzero"/></clipPath><clipPath id="e676d24725"><path d="M 6.761719 13 L 13 13 L 13 21 L 6.761719 21 Z M 6.761719 13 " clip-rule="nonzero"/></clipPath><clipPath id="486c60342d"><path d="M 12 6.277344 L 23 6.277344 L 23 21 L 12 21 Z M 12 6.277344 " clip-rule="nonzero"/></clipPath></defs><g clip-path="url(#f01ebe14c2)"><g clip-path="url(#cb912d28b8)"><path fill="#8c52ff" d="M 1.289062 0.949219 L 34.679688 0.949219 L 34.679688 34.078125 L 1.289062 34.078125 Z M 1.289062 0.949219 " fill-opacity="1" fill-rule="nonzero"/></g></g><g clip-path="url(#0a38d6962d)"><path fill="#000000" d="M 16.066406 28.011719 C 16.117188 28.03125 16.1875 28.03125 16.238281 28.046875 C 16.253906 28.046875 16.269531 28.046875 16.289062 28.046875 C 16.460938 28.046875 16.597656 27.929688 16.628906 27.757812 C 16.664062 27.570312 16.546875 27.398438 16.355469 27.363281 C 16.304688 27.347656 16.253906 27.347656 16.203125 27.328125 C 16.015625 27.296875 15.84375 27.414062 15.808594 27.601562 C 15.757812 27.792969 15.878906 27.980469 16.066406 28.011719 Z M 16.066406 28.011719 " fill-opacity="1" fill-rule="nonzero"/></g><path fill="#000000" d="M 15.175781 27.433594 C 15.246094 27.261719 15.160156 27.054688 14.972656 26.988281 C 14.921875 26.96875 14.867188 26.953125 14.816406 26.9375 C 14.648438 26.867188 14.441406 26.953125 14.371094 27.125 C 14.304688 27.296875 14.390625 27.5 14.5625 27.570312 C 14.613281 27.585938 14.664062 27.621094 14.730469 27.636719 C 14.765625 27.65625 14.816406 27.65625 14.851562 27.65625 C 14.988281 27.65625 15.125 27.570312 15.175781 27.433594 Z M 15.175781 27.433594 " fill-opacity="1" fill-rule="nonzero"/><g clip-path="url(#60927984b7)"><path fill="#000000" d="M 17.621094 28.167969 L 17.792969 28.167969 C 17.980469 28.167969 18.136719 28.011719 18.136719 27.824219 C 18.136719 27.636719 17.980469 27.484375 17.792969 27.484375 L 17.640625 27.484375 C 17.453125 27.484375 17.296875 27.636719 17.296875 27.824219 C 17.28125 28.011719 17.433594 28.167969 17.621094 28.167969 Z M 17.621094 28.167969 " fill-opacity="1" fill-rule="nonzero"/></g><path fill="#000000" d="M 10.40625 21.667969 C 10.371094 21.480469 10.183594 21.359375 10.011719 21.394531 C 9.824219 21.429688 9.703125 21.617188 9.738281 21.789062 C 9.753906 21.839844 9.753906 21.90625 9.773438 21.960938 C 9.804688 22.113281 9.941406 22.234375 10.113281 22.234375 C 10.132812 22.234375 10.164062 22.234375 10.183594 22.234375 C 10.371094 22.199219 10.492188 22.011719 10.4375 21.824219 C 10.421875 21.769531 10.40625 21.71875 10.40625 21.667969 Z M 10.40625 21.667969 " fill-opacity="1" fill-rule="nonzero"/><path fill="#000000" d="M 13.792969 26.832031 C 13.894531 26.679688 13.84375 26.457031 13.671875 26.355469 C 13.621094 26.320312 13.585938 26.304688 13.535156 26.269531 C 13.382812 26.167969 13.160156 26.21875 13.054688 26.371094 C 12.953125 26.527344 13.003906 26.746094 13.160156 26.851562 C 13.210938 26.886719 13.261719 26.917969 13.3125 26.9375 C 13.363281 26.96875 13.433594 26.988281 13.484375 26.988281 C 13.621094 26.988281 13.722656 26.9375 13.792969 26.832031 Z M 13.792969 26.832031 " fill-opacity="1" fill-rule="nonzero"/><path fill="#000000" d="M 11.5 24.285156 C 11.398438 24.132812 11.175781 24.097656 11.019531 24.199219 C 10.867188 24.300781 10.832031 24.523438 10.933594 24.679688 C 10.96875 24.730469 11.003906 24.78125 11.039062 24.816406 C 11.105469 24.902344 11.207031 24.953125 11.3125 24.953125 C 11.378906 24.953125 11.449219 24.933594 11.515625 24.882812 C 11.671875 24.78125 11.703125 24.558594 11.601562 24.40625 C 11.550781 24.371094 11.515625 24.335938 11.5 24.285156 Z M 11.5 24.285156 " fill-opacity="1" fill-rule="nonzero"/><path fill="#000000" d="M 10.816406 23.035156 C 10.746094 22.867188 10.542969 22.78125 10.371094 22.847656 C 10.199219 22.917969 10.113281 23.121094 10.183594 23.292969 C 10.199219 23.34375 10.234375 23.394531 10.25 23.445312 C 10.300781 23.566406 10.4375 23.652344 10.558594 23.652344 C 10.609375 23.652344 10.644531 23.636719 10.695312 23.617188 C 10.867188 23.550781 10.953125 23.34375 10.867188 23.171875 C 10.851562 23.140625 10.832031 23.089844 10.816406 23.035156 Z M 10.816406 23.035156 " fill-opacity="1" fill-rule="nonzero"/><path fill="#000000" d="M 11.925781 25.398438 C 11.789062 25.535156 11.808594 25.757812 11.925781 25.875 C 11.960938 25.910156 12.011719 25.960938 12.046875 25.996094 C 12.117188 26.0625 12.199219 26.082031 12.285156 26.082031 C 12.371094 26.082031 12.472656 26.046875 12.542969 25.976562 C 12.679688 25.839844 12.664062 25.621094 12.527344 25.5 C 12.492188 25.464844 12.441406 25.429688 12.40625 25.398438 C 12.285156 25.261719 12.0625 25.261719 11.925781 25.398438 Z M 11.925781 25.398438 " fill-opacity="1" fill-rule="nonzero"/><g clip-path="url(#01258c95bd)"><path fill="#000000" d="M 19.128906 28.046875 C 19.144531 28.046875 19.160156 28.046875 19.179688 28.046875 C 19.230469 28.03125 19.296875 28.03125 19.351562 28.011719 C 19.539062 27.980469 19.65625 27.792969 19.625 27.621094 C 19.589844 27.433594 19.402344 27.3125 19.230469 27.347656 C 19.179688 27.363281 19.128906 27.363281 19.078125 27.378906 C 18.886719 27.414062 18.769531 27.585938 18.800781 27.773438 C 18.820312 27.929688 18.957031 28.046875 19.128906 28.046875 Z M 19.128906 28.046875 " fill-opacity="1" fill-rule="nonzero"/></g><path fill="#000000" d="M 20.582031 27.65625 C 20.617188 27.65625 20.667969 27.65625 20.699219 27.636719 C 20.753906 27.621094 20.804688 27.601562 20.855469 27.570312 C 21.027344 27.5 21.113281 27.296875 21.042969 27.125 C 20.976562 26.953125 20.769531 26.867188 20.597656 26.9375 C 20.546875 26.953125 20.496094 26.96875 20.445312 26.988281 C 20.273438 27.054688 20.171875 27.242188 20.238281 27.433594 C 20.308594 27.570312 20.445312 27.65625 20.582031 27.65625 Z M 20.582031 27.65625 " fill-opacity="1" fill-rule="nonzero"/><path fill="#000000" d="M 23.011719 25.378906 C 22.976562 25.414062 22.941406 25.449219 22.890625 25.480469 C 22.753906 25.621094 22.738281 25.824219 22.875 25.960938 C 22.941406 26.03125 23.027344 26.0625 23.128906 26.0625 C 23.214844 26.0625 23.300781 26.03125 23.371094 25.976562 C 23.402344 25.945312 23.453125 25.894531 23.488281 25.859375 C 23.625 25.722656 23.625 25.515625 23.488281 25.378906 C 23.351562 25.242188 23.148438 25.242188 23.011719 25.378906 Z M 23.011719 25.378906 " fill-opacity="1" fill-rule="nonzero"/><path fill="#000000" d="M 25.421875 21.378906 C 25.234375 21.34375 25.0625 21.464844 25.027344 21.652344 C 25.011719 21.703125 25.011719 21.753906 24.992188 21.804688 C 24.960938 21.992188 25.078125 22.164062 25.25 22.214844 C 25.269531 22.214844 25.300781 22.214844 25.320312 22.214844 C 25.472656 22.214844 25.625 22.113281 25.660156 21.941406 C 25.679688 21.890625 25.679688 21.824219 25.695312 21.769531 C 25.730469 21.601562 25.609375 21.410156 25.421875 21.378906 Z M 25.421875 21.378906 " fill-opacity="1" fill-rule="nonzero"/><path fill="#000000" d="M 22.359375 26.371094 C 22.257812 26.21875 22.050781 26.167969 21.882812 26.269531 C 21.828125 26.304688 21.796875 26.320312 21.746094 26.355469 C 21.589844 26.457031 21.539062 26.664062 21.640625 26.832031 C 21.710938 26.9375 21.8125 26.988281 21.933594 26.988281 C 22 26.988281 22.050781 26.96875 22.105469 26.9375 C 22.15625 26.902344 22.207031 26.867188 22.257812 26.851562 C 22.410156 26.746094 22.460938 26.527344 22.359375 26.371094 Z M 22.359375 26.371094 " fill-opacity="1" fill-rule="nonzero"/><path fill="#000000" d="M 24.394531 24.199219 C 24.242188 24.097656 24.019531 24.132812 23.917969 24.285156 C 23.882812 24.335938 23.847656 24.371094 23.832031 24.421875 C 23.726562 24.574219 23.761719 24.78125 23.917969 24.902344 C 23.984375 24.953125 24.054688 24.96875 24.121094 24.96875 C 24.222656 24.96875 24.328125 24.917969 24.394531 24.832031 C 24.429688 24.78125 24.464844 24.730469 24.496094 24.695312 C 24.601562 24.507812 24.566406 24.300781 24.394531 24.199219 Z M 24.394531 24.199219 " fill-opacity="1" fill-rule="nonzero"/><path fill="#000000" d="M 24.617188 23.019531 C 24.601562 23.070312 24.582031 23.121094 24.550781 23.171875 C 24.480469 23.34375 24.550781 23.550781 24.71875 23.617188 C 24.773438 23.636719 24.804688 23.652344 24.855469 23.652344 C 24.992188 23.652344 25.113281 23.582031 25.164062 23.445312 C 25.183594 23.394531 25.214844 23.34375 25.234375 23.292969 C 25.300781 23.121094 25.214844 22.917969 25.046875 22.847656 C 24.890625 22.761719 24.6875 22.847656 24.617188 23.019531 Z M 24.617188 23.019531 " fill-opacity="1" fill-rule="nonzero"/><path fill="#000000" d="M 11.070312 19.429688 C 11.261719 19.429688 11.414062 19.273438 11.414062 19.085938 L 11.414062 18.351562 C 11.789062 18.195312 12.0625 17.835938 12.0625 17.394531 C 12.0625 16.828125 11.601562 16.367188 11.039062 16.367188 C 10.472656 16.367188 10.011719 16.828125 10.011719 17.394531 C 10.011719 17.855469 10.320312 18.230469 10.730469 18.367188 L 10.730469 19.085938 C 10.730469 19.273438 10.882812 19.429688 11.070312 19.429688 Z M 10.695312 17.394531 C 10.695312 17.203125 10.851562 17.050781 11.039062 17.050781 C 11.226562 17.050781 11.378906 17.203125 11.378906 17.394531 C 11.378906 17.582031 11.226562 17.734375 11.039062 17.734375 C 10.851562 17.734375 10.695312 17.582031 10.695312 17.394531 Z M 10.695312 17.394531 " fill-opacity="1" fill-rule="nonzero"/><path fill="#000000" d="M 24.34375 19.429688 C 24.53125 19.429688 24.6875 19.273438 24.6875 19.085938 L 24.6875 18.367188 C 25.097656 18.230469 25.40625 17.855469 25.40625 17.394531 C 25.40625 16.828125 24.941406 16.367188 24.378906 16.367188 C 23.8125 16.367188 23.351562 16.828125 23.351562 17.394531 C 23.351562 17.820312 23.625 18.195312 24.003906 18.351562 L 24.003906 19.085938 C 24.003906 19.273438 24.15625 19.429688 24.34375 19.429688 Z M 24.378906 17.050781 C 24.566406 17.050781 24.71875 17.203125 24.71875 17.394531 C 24.71875 17.582031 24.566406 17.734375 24.378906 17.734375 C 24.191406 17.734375 24.035156 17.582031 24.035156 17.394531 C 24.035156 17.203125 24.191406 17.050781 24.378906 17.050781 Z M 24.378906 17.050781 " fill-opacity="1" fill-rule="nonzero"/><path fill="#000000" d="M 27.113281 12.449219 C 27.304688 12.449219 27.457031 12.296875 27.457031 12.109375 L 27.457031 11.253906 C 27.457031 9.832031 26.242188 8.671875 24.738281 8.671875 L 24.019531 8.671875 C 23.214844 8.671875 22.480469 9.011719 21.984375 9.542969 L 21.984375 11.253906 C 21.984375 10.210938 22.890625 9.355469 24.019531 9.355469 L 24.738281 9.355469 C 25.867188 9.355469 26.773438 10.210938 26.773438 11.253906 L 26.773438 12.109375 C 26.773438 12.296875 26.925781 12.449219 27.113281 12.449219 Z M 27.113281 12.449219 " fill-opacity="1" fill-rule="nonzero"/><g clip-path="url(#8f55c579bc)"><path fill="#000000" d="M 27.9375 13.628906 L 23.523438 13.628906 L 23.523438 14.3125 L 27.9375 14.3125 C 27.953125 14.3125 27.96875 14.332031 27.96875 14.347656 L 27.96875 19.925781 C 27.96875 20.042969 27.867188 20.128906 27.746094 20.128906 L 23.488281 20.128906 C 23.4375 20.386719 23.335938 20.609375 23.179688 20.8125 L 27.746094 20.8125 C 28.242188 20.8125 28.652344 20.417969 28.652344 19.925781 L 28.652344 14.347656 C 28.652344 13.953125 28.328125 13.628906 27.9375 13.628906 Z M 27.9375 13.628906 " fill-opacity="1" fill-rule="nonzero"/></g><path fill="#000000" d="M 14.289062 23.378906 C 14.289062 25.242188 15.828125 26.765625 17.707031 26.800781 C 17.726562 26.800781 17.742188 26.800781 17.757812 26.800781 C 19.625 26.800781 21.128906 25.328125 21.128906 23.480469 C 21.128906 22.148438 20.324219 20.96875 19.179688 20.417969 L 19.179688 19.238281 L 18.222656 18.316406 L 18.992188 17.667969 C 19.09375 17.582031 19.09375 17.445312 18.972656 17.359375 L 18.1875 16.792969 L 18.992188 16.144531 C 19.09375 16.058594 19.109375 15.90625 19.007812 15.820312 L 18.308594 15.117188 L 19.042969 14.433594 C 19.09375 14.382812 19.128906 14.296875 19.128906 14.230469 L 19.128906 13.871094 C 19.128906 13.800781 19.09375 13.699219 19.042969 13.648438 L 17.726562 12.160156 C 17.675781 12.109375 17.621094 12.074219 17.570312 12.074219 C 17.519531 12.074219 17.453125 12.109375 17.417969 12.160156 L 16.460938 13.511719 C 16.375 13.613281 16.304688 13.800781 16.304688 13.9375 L 16.324219 20.300781 C 15.125 20.847656 14.289062 22.011719 14.289062 23.378906 Z M 16.578125 20.96875 C 16.835938 20.863281 16.988281 20.609375 16.988281 20.335938 L 16.972656 13.988281 C 16.972656 13.972656 16.972656 13.953125 16.988281 13.953125 C 16.988281 13.953125 17.007812 13.9375 17.007812 13.9375 L 17.605469 13.082031 L 18.425781 14.007812 L 18.425781 14.058594 L 17.8125 14.621094 C 17.675781 14.742188 17.589844 14.929688 17.589844 15.117188 C 17.589844 15.304688 17.65625 15.476562 17.792969 15.613281 L 18.117188 15.9375 L 17.726562 16.265625 C 17.554688 16.402344 17.46875 16.605469 17.46875 16.8125 C 17.46875 17.035156 17.589844 17.222656 17.757812 17.339844 L 18.03125 17.546875 L 17.757812 17.785156 C 17.621094 17.90625 17.535156 18.09375 17.535156 18.28125 C 17.535156 18.46875 17.605469 18.660156 17.742188 18.796875 L 18.476562 19.511719 L 18.476562 20.402344 C 18.476562 20.660156 18.632812 20.898438 18.871094 21.019531 C 19.828125 21.480469 20.445312 22.4375 20.445312 23.480469 C 20.445312 24.183594 20.171875 24.832031 19.675781 25.328125 C 19.160156 25.839844 18.496094 26.113281 17.757812 26.113281 L 17.726562 26.113281 C 16.203125 26.097656 14.972656 24.867188 14.972656 23.378906 C 14.972656 22.335938 15.605469 21.378906 16.578125 20.96875 Z M 16.578125 20.96875 " fill-opacity="1" fill-rule="nonzero"/><path fill="#000000" d="M 17.707031 24.917969 C 18.460938 24.917969 19.078125 24.300781 19.078125 23.550781 C 19.078125 23.191406 18.941406 22.832031 18.683594 22.574219 C 18.425781 22.335938 18.085938 22.179688 17.707031 22.179688 C 16.957031 22.179688 16.339844 22.796875 16.339844 23.550781 C 16.339844 23.910156 16.476562 24.269531 16.734375 24.523438 C 16.988281 24.765625 17.332031 24.917969 17.707031 24.917969 Z M 17.707031 24.917969 " fill-opacity="1" fill-rule="nonzero"/><path fill="#000000" d="M 8.300781 12.449219 C 8.488281 12.449219 8.644531 12.296875 8.644531 12.109375 L 8.644531 11.253906 C 8.644531 10.210938 9.550781 9.355469 10.679688 9.355469 L 11.398438 9.355469 C 12.527344 9.355469 13.433594 10.210938 13.433594 11.253906 L 13.433594 9.542969 C 12.9375 9.011719 12.199219 8.671875 11.398438 8.671875 L 10.679688 8.671875 C 9.171875 8.671875 7.960938 9.832031 7.960938 11.253906 L 7.960938 12.109375 C 7.960938 12.296875 8.113281 12.449219 8.300781 12.449219 Z M 8.300781 12.449219 " fill-opacity="1" fill-rule="nonzero"/><g clip-path="url(#e676d24725)"><path fill="#000000" d="M 7.667969 20.8125 L 12.234375 20.8125 C 12.082031 20.609375 11.980469 20.386719 11.925781 20.128906 L 7.667969 20.128906 C 7.550781 20.128906 7.445312 20.042969 7.445312 19.925781 L 7.445312 14.347656 C 7.445312 14.332031 7.464844 14.3125 7.480469 14.3125 L 11.894531 14.3125 L 11.894531 13.628906 L 7.480469 13.628906 C 7.085938 13.628906 6.761719 13.953125 6.761719 14.347656 L 6.761719 19.925781 C 6.761719 20.417969 7.171875 20.8125 7.667969 20.8125 Z M 7.667969 20.8125 " fill-opacity="1" fill-rule="nonzero"/></g><g clip-path="url(#486c60342d)"><path fill="#000000" d="M 18.136719 6.277344 L 17.28125 6.277344 C 15.535156 6.277344 14.117188 7.644531 14.117188 9.335938 L 14.117188 12.089844 L 13.382812 12.089844 C 12.9375 12.089844 12.578125 12.449219 12.578125 12.894531 L 12.578125 19.785156 C 12.578125 20.351562 13.039062 20.8125 13.601562 20.8125 L 14.542969 20.8125 C 14.851562 20.453125 15.210938 20.144531 15.636719 19.90625 L 15.621094 13.972656 C 15.621094 13.679688 15.742188 13.355469 15.914062 13.132812 L 16.628906 12.109375 L 14.800781 12.109375 L 14.800781 9.335938 C 14.800781 8.019531 15.914062 6.960938 17.28125 6.960938 L 18.136719 6.960938 C 19.503906 6.960938 20.617188 8.019531 20.617188 9.335938 L 20.617188 12.089844 L 18.5625 12.089844 L 19.539062 13.203125 C 19.691406 13.390625 19.792969 13.628906 19.792969 13.871094 L 19.792969 14.230469 C 19.792969 14.484375 19.675781 14.757812 19.488281 14.945312 L 19.265625 15.152344 L 19.453125 15.339844 C 19.640625 15.527344 19.742188 15.785156 19.726562 16.023438 C 19.710938 16.28125 19.589844 16.519531 19.382812 16.675781 L 19.28125 16.761719 L 19.332031 16.792969 C 19.554688 16.949219 19.691406 17.203125 19.710938 17.476562 C 19.726562 17.75 19.605469 18.007812 19.402344 18.179688 L 19.246094 18.332031 L 19.65625 18.726562 C 19.792969 18.863281 19.863281 19.035156 19.863281 19.222656 L 19.863281 20.007812 C 20.222656 20.230469 20.546875 20.503906 20.804688 20.8125 L 21.8125 20.8125 C 22.378906 20.8125 22.839844 20.351562 22.839844 19.785156 L 22.839844 12.894531 C 22.839844 12.449219 22.480469 12.089844 22.035156 12.089844 L 21.300781 12.089844 L 21.300781 9.335938 C 21.300781 7.644531 19.878906 6.277344 18.136719 6.277344 Z M 18.136719 6.277344 " fill-opacity="1" fill-rule="nonzero"/></g></svg>