<svg xmlns="http://www.w3.org/2000/svg" xmlns:xlink="http://www.w3.org/1999/xlink" width="48" zoomAndPan="magnify" viewBox="0 0 36 36.000001" height="48" preserveAspectRatio="xMidYMid meet" version="1.0"><defs><clipPath id="235265c0af"><path d="M 1.289062 0.949219 L 34.808594 0.949219 L 34.808594 34.078125 L 1.289062 34.078125 Z M 1.289062 0.949219 " clip-rule="nonzero"/></clipPath><clipPath id="613a8a7208"><path d="M 9.316406 0.949219 L 26.683594 0.949219 C 31.117188 0.949219 34.710938 4.542969 34.710938 8.976562 L 34.710938 26.050781 C 34.710938 30.484375 31.117188 34.078125 26.683594 34.078125 L 9.316406 34.078125 C 4.882812 34.078125 1.289062 30.484375 1.289062 26.050781 L 1.289062 8.976562 C 1.289062 4.542969 4.882812 0.949219 9.316406 0.949219 Z M 9.316406 0.949219 " clip-rule="nonzero"/></clipPath><clipPath id="20d40f1ae8"><path d="M 28 6.714844 L 29.09375 6.714844 L 29.09375 8 L 28 8 Z M 28 6.714844 " clip-rule="nonzero"/></clipPath><clipPath id="79963631b8"><path d="M 7.199219 6.714844 L 8 6.714844 L 8 8 L 7.199219 8 Z M 7.199219 6.714844 " clip-rule="nonzero"/></clipPath><clipPath id="ff1c5758e2"><path d="M 21 13 L 25 13 L 25 28.605469 L 21 28.605469 Z M 21 13 " clip-rule="nonzero"/></clipPath><clipPath id="883a88095c"><path d="M 18 16 L 22 16 L 22 28.605469 L 18 28.605469 Z M 18 16 " clip-rule="nonzero"/></clipPath><clipPath id="6c7a579c08"><path d="M 15 20 L 18 20 L 18 28.605469 L 15 28.605469 Z M 15 20 " clip-rule="nonzero"/></clipPath><clipPath id="2ed37ef915"><path d="M 11 23 L 15 23 L 15 28.605469 L 11 28.605469 Z M 11 23 " clip-rule="nonzero"/></clipPath><clipPath id="6e5d85d99a"><path d="M 7.199219 6.714844 L 29.09375 6.714844 L 29.09375 23 L 7.199219 23 Z M 7.199219 6.714844 " clip-rule="nonzero"/></clipPath></defs><g clip-path="url(#235265c0af)"><g clip-path="url(#613a8a7208)"><path fill="#7ed957" d="M 1.289062 0.949219 L 34.679688 0.949219 L 34.679688 34.078125 L 1.289062 34.078125 Z M 1.289062 0.949219 " fill-opacity="1" fill-rule="nonzero"/></g></g><path fill="#000000" d="M 27.382812 9.277344 C 27.859375 9.277344 28.238281 8.902344 28.238281 8.421875 C 28.238281 8.203125 28.152344 7.980469 27.980469 7.824219 C 27.828125 7.652344 27.621094 7.570312 27.382812 7.570312 C 26.917969 7.570312 26.527344 7.945312 26.527344 8.421875 C 26.527344 8.886719 26.902344 9.277344 27.382812 9.277344 Z M 27.382812 8.253906 C 27.449219 8.253906 27.484375 8.285156 27.5 8.304688 C 27.519531 8.320312 27.550781 8.355469 27.550781 8.421875 C 27.550781 8.527344 27.46875 8.59375 27.382812 8.59375 C 27.277344 8.59375 27.210938 8.507812 27.210938 8.421875 C 27.210938 8.320312 27.296875 8.253906 27.382812 8.253906 Z M 27.382812 8.253906 " fill-opacity="1" fill-rule="nonzero"/><g clip-path="url(#20d40f1ae8)"><path fill="#000000" d="M 29.09375 7.054688 C 29.09375 7.148438 29.058594 7.230469 28.992188 7.296875 C 28.925781 7.363281 28.84375 7.398438 28.75 7.398438 C 28.65625 7.398438 28.574219 7.363281 28.507812 7.296875 C 28.441406 7.230469 28.40625 7.148438 28.40625 7.054688 C 28.40625 6.960938 28.441406 6.878906 28.507812 6.8125 C 28.574219 6.746094 28.65625 6.714844 28.75 6.714844 C 28.84375 6.714844 28.925781 6.746094 28.992188 6.8125 C 29.058594 6.878906 29.09375 6.960938 29.09375 7.054688 Z M 29.09375 7.054688 " fill-opacity="1" fill-rule="nonzero"/></g><path fill="#000000" d="M 8.910156 9.277344 C 9.390625 9.277344 9.765625 8.886719 9.765625 8.421875 C 9.765625 7.945312 9.371094 7.570312 8.910156 7.570312 C 8.671875 7.570312 8.464844 7.652344 8.3125 7.824219 C 8.140625 7.980469 8.054688 8.203125 8.054688 8.421875 C 8.054688 8.902344 8.449219 9.277344 8.910156 9.277344 Z M 8.789062 8.304688 C 8.808594 8.285156 8.84375 8.253906 8.910156 8.253906 C 9.011719 8.253906 9.082031 8.320312 9.082031 8.421875 C 9.082031 8.527344 9.011719 8.59375 8.910156 8.59375 C 8.808594 8.59375 8.738281 8.527344 8.738281 8.421875 C 8.738281 8.355469 8.773438 8.320312 8.789062 8.304688 Z M 8.789062 8.304688 " fill-opacity="1" fill-rule="nonzero"/><g clip-path="url(#79963631b8)"><path fill="#000000" d="M 7.882812 7.054688 C 7.882812 7.148438 7.851562 7.230469 7.785156 7.296875 C 7.71875 7.363281 7.636719 7.398438 7.542969 7.398438 C 7.449219 7.398438 7.367188 7.363281 7.300781 7.296875 C 7.234375 7.230469 7.199219 7.148438 7.199219 7.054688 C 7.199219 6.960938 7.234375 6.878906 7.300781 6.8125 C 7.367188 6.746094 7.449219 6.714844 7.542969 6.714844 C 7.636719 6.714844 7.71875 6.746094 7.785156 6.8125 C 7.851562 6.878906 7.882812 6.960938 7.882812 7.054688 Z M 7.882812 7.054688 " fill-opacity="1" fill-rule="nonzero"/></g><g clip-path="url(#ff1c5758e2)"><path fill="#000000" d="M 23.960938 13.210938 L 22.59375 13.210938 C 22.214844 13.210938 21.910156 13.519531 21.910156 13.898438 L 21.910156 28.261719 C 21.910156 28.453125 22.0625 28.605469 22.25 28.605469 L 24.304688 28.605469 C 24.492188 28.605469 24.644531 28.453125 24.644531 28.261719 L 24.644531 13.898438 C 24.644531 13.519531 24.335938 13.210938 23.960938 13.210938 Z M 23.960938 27.921875 L 22.59375 27.921875 L 22.59375 13.898438 L 23.960938 13.898438 Z M 23.960938 27.921875 " fill-opacity="1" fill-rule="nonzero"/></g><g clip-path="url(#883a88095c)"><path fill="#000000" d="M 20.539062 16.632812 L 19.171875 16.632812 C 18.796875 16.632812 18.488281 16.941406 18.488281 17.316406 L 18.488281 28.261719 C 18.488281 28.453125 18.640625 28.605469 18.828125 28.605469 L 20.882812 28.605469 C 21.070312 28.605469 21.222656 28.453125 21.222656 28.261719 L 21.222656 17.316406 C 21.222656 16.941406 20.917969 16.632812 20.539062 16.632812 Z M 20.539062 27.921875 L 19.171875 27.921875 L 19.171875 17.316406 L 20.539062 17.316406 Z M 20.539062 27.921875 " fill-opacity="1" fill-rule="nonzero"/></g><g clip-path="url(#6c7a579c08)"><path fill="#000000" d="M 17.121094 20.054688 L 15.75 20.054688 C 15.375 20.054688 15.066406 20.363281 15.066406 20.738281 L 15.066406 28.261719 C 15.066406 28.453125 15.222656 28.605469 15.410156 28.605469 L 17.460938 28.605469 C 17.648438 28.605469 17.804688 28.453125 17.804688 28.261719 L 17.804688 20.738281 C 17.804688 20.363281 17.496094 20.054688 17.121094 20.054688 Z M 17.121094 27.921875 L 15.75 27.921875 L 15.75 20.738281 L 17.121094 20.738281 Z M 17.121094 27.921875 " fill-opacity="1" fill-rule="nonzero"/></g><g clip-path="url(#2ed37ef915)"><path fill="#000000" d="M 13.699219 23.472656 L 12.332031 23.472656 C 11.953125 23.472656 11.648438 23.78125 11.648438 24.160156 L 11.648438 28.261719 C 11.648438 28.453125 11.800781 28.605469 11.988281 28.605469 L 14.042969 28.605469 C 14.230469 28.605469 14.382812 28.453125 14.382812 28.261719 L 14.382812 24.160156 C 14.382812 23.78125 14.074219 23.472656 13.699219 23.472656 Z M 13.699219 27.921875 L 12.332031 27.921875 L 12.332031 24.160156 L 13.699219 24.160156 Z M 13.699219 27.921875 " fill-opacity="1" fill-rule="nonzero"/></g><path fill="#000000" d="M 13.355469 17.660156 C 13.355469 18.15625 13.425781 18.617188 13.5625 19.0625 C 13.75 18.925781 13.957031 18.769531 14.160156 18.617188 C 14.074219 18.328125 14.042969 18 14.042969 17.660156 C 14.042969 15.554688 15.613281 13.828125 17.648438 13.589844 C 17.5625 13.367188 17.546875 13.128906 17.617188 12.90625 C 15.222656 13.160156 13.355469 15.195312 13.355469 17.660156 Z M 13.355469 17.660156 " fill-opacity="1" fill-rule="nonzero"/><path fill="#000000" d="M 10.484375 21.902344 C 10.535156 22.039062 10.671875 22.105469 10.792969 22.105469 C 10.84375 22.105469 10.878906 22.105469 10.929688 22.070312 C 12.945312 21.234375 17.71875 18.753906 19.652344 13.519531 L 19.683594 13.691406 C 19.71875 13.84375 19.855469 13.964844 20.011719 13.964844 C 20.027344 13.964844 20.0625 13.964844 20.09375 13.949219 C 20.285156 13.914062 20.386719 13.726562 20.351562 13.539062 L 20.027344 12.117188 C 19.992188 12 19.90625 11.894531 19.789062 11.863281 C 19.667969 11.828125 19.546875 11.863281 19.460938 11.929688 L 18.367188 12.9375 C 18.230469 13.058594 18.214844 13.28125 18.351562 13.417969 C 18.472656 13.554688 18.691406 13.570312 18.828125 13.433594 L 19.019531 13.265625 C 17.1875 18.273438 12.605469 20.636719 10.65625 21.457031 C 10.484375 21.523438 10.398438 21.710938 10.484375 21.902344 Z M 10.484375 21.902344 " fill-opacity="1" fill-rule="nonzero"/><path fill="#000000" d="M 20.675781 14.425781 C 20.867188 14.582031 21.054688 14.75 21.222656 14.957031 L 21.222656 14 C 21.15625 13.949219 21.105469 13.898438 21.035156 13.84375 C 20.984375 14.066406 20.847656 14.273438 20.675781 14.425781 Z M 20.675781 14.425781 " fill-opacity="1" fill-rule="nonzero"/><path fill="#000000" d="M 25.328125 22.261719 L 25.328125 23.234375 L 25.929688 23.832031 C 26.082031 23.988281 26.03125 24.296875 25.824219 24.5 L 25.328125 24.996094 L 25.328125 25.953125 C 25.378906 25.921875 25.414062 25.886719 25.449219 25.835938 L 26.304688 24.980469 C 26.78125 24.5 26.816406 23.78125 26.40625 23.355469 Z M 25.328125 22.261719 " fill-opacity="1" fill-rule="nonzero"/><path fill="#000000" d="M 10.792969 22.789062 C 10.6875 22.789062 10.585938 22.773438 10.484375 22.738281 L 9.886719 23.335938 C 9.457031 23.765625 9.507812 24.484375 9.988281 24.960938 L 10.84375 25.816406 C 10.878906 25.851562 10.929688 25.886719 10.960938 25.921875 L 10.960938 24.960938 L 10.464844 24.464844 C 10.261719 24.261719 10.226562 23.953125 10.363281 23.816406 L 11.457031 22.722656 C 11.511719 22.671875 11.5625 22.601562 11.59375 22.515625 C 11.441406 22.585938 11.304688 22.636719 11.183594 22.6875 C 11.046875 22.773438 10.929688 22.789062 10.792969 22.789062 Z M 10.792969 22.789062 " fill-opacity="1" fill-rule="nonzero"/><g clip-path="url(#6e5d85d99a)"><path fill="#000000" d="M 28.015625 15.828125 L 26.457031 15.828125 C 26.234375 14.835938 25.84375 13.898438 25.3125 13.058594 L 26.40625 11.964844 C 26.835938 11.535156 26.78125 10.816406 26.304688 10.339844 L 25.449219 9.484375 C 25.191406 9.226562 24.867188 9.089844 24.542969 9.089844 C 24.269531 9.089844 24.011719 9.195312 23.824219 9.382812 L 22.730469 10.476562 C 21.910156 9.964844 20.96875 9.570312 19.976562 9.347656 L 19.976562 7.789062 C 19.976562 7.191406 19.429688 6.714844 18.761719 6.714844 L 17.546875 6.714844 C 16.878906 6.714844 16.332031 7.191406 16.332031 7.789062 L 16.332031 9.347656 C 15.324219 9.570312 14.382812 9.964844 13.5625 10.492188 L 12.46875 9.398438 C 12.28125 9.210938 12.007812 9.109375 11.75 9.109375 C 11.441406 9.109375 11.097656 9.246094 10.84375 9.5 L 9.988281 10.355469 C 9.507812 10.835938 9.476562 11.554688 9.886719 11.980469 L 10.980469 13.074219 C 10.449219 13.898438 10.054688 14.835938 9.832031 15.828125 L 8.277344 15.828125 C 7.679688 15.828125 7.199219 16.375 7.199219 17.042969 L 7.199219 18.257812 C 7.199219 18.925781 7.679688 19.472656 8.277344 19.472656 L 9.832031 19.472656 C 9.9375 19.953125 10.089844 20.429688 10.277344 20.875 C 10.3125 20.859375 10.363281 20.824219 10.414062 20.804688 C 10.570312 20.738281 10.722656 20.667969 10.910156 20.585938 C 10.742188 20.171875 10.621094 19.746094 10.519531 19.320312 C 10.449219 19.011719 10.175781 18.789062 9.851562 18.789062 L 8.277344 18.789062 C 8.054688 18.789062 7.882812 18.546875 7.882812 18.257812 L 7.882812 17.042969 C 7.882812 16.753906 8.070312 16.511719 8.277344 16.511719 L 9.832031 16.511719 C 10.160156 16.511719 10.433594 16.292969 10.5 15.984375 C 10.6875 15.078125 11.046875 14.222656 11.5625 13.433594 C 11.730469 13.160156 11.699219 12.800781 11.476562 12.578125 L 10.382812 11.484375 C 10.226562 11.332031 10.277344 11.023438 10.484375 10.835938 L 11.339844 9.980469 C 11.457031 9.859375 11.613281 9.792969 11.75 9.792969 C 11.816406 9.792969 11.921875 9.808594 11.988281 9.878906 L 13.082031 10.972656 C 13.21875 11.109375 13.390625 11.175781 13.5625 11.175781 C 13.683594 11.175781 13.820312 11.144531 13.9375 11.074219 C 14.726562 10.578125 15.582031 10.21875 16.488281 10.015625 C 16.792969 9.945312 17.015625 9.671875 17.015625 9.347656 L 17.015625 7.789062 C 17.015625 7.570312 17.257812 7.398438 17.546875 7.398438 L 18.761719 7.398438 C 19.050781 7.398438 19.292969 7.585938 19.292969 7.789062 L 19.292969 9.347656 C 19.292969 9.671875 19.515625 9.945312 19.820312 10.015625 C 20.726562 10.21875 21.582031 10.5625 22.371094 11.074219 C 22.488281 11.144531 22.609375 11.175781 22.746094 11.175781 C 22.917969 11.175781 23.105469 11.109375 23.226562 10.972656 L 24.320312 9.878906 C 24.386719 9.808594 24.492188 9.792969 24.558594 9.792969 C 24.714844 9.792969 24.851562 9.859375 24.96875 9.980469 L 25.824219 10.835938 C 26.03125 11.039062 26.066406 11.347656 25.929688 11.484375 L 24.832031 12.578125 C 24.78125 12.632812 24.746094 12.683594 24.714844 12.75 C 25.089844 12.992188 25.328125 13.417969 25.328125 13.898438 L 25.328125 14.546875 C 25.535156 15.007812 25.6875 15.488281 25.789062 15.984375 C 25.859375 16.292969 26.132812 16.511719 26.457031 16.511719 L 28.015625 16.511719 C 28.238281 16.511719 28.40625 16.753906 28.40625 17.042969 L 28.40625 18.257812 C 28.40625 18.546875 28.21875 18.789062 28.015625 18.789062 L 26.457031 18.789062 C 26.132812 18.789062 25.859375 19.011719 25.789062 19.320312 C 25.6875 19.8125 25.535156 20.292969 25.328125 20.753906 L 25.328125 22.207031 C 25.859375 21.386719 26.253906 20.464844 26.457031 19.472656 L 28.015625 19.472656 C 28.613281 19.472656 29.09375 18.925781 29.09375 18.257812 L 29.09375 17.042969 C 29.09375 16.375 28.613281 15.828125 28.015625 15.828125 Z M 28.015625 15.828125 " fill-opacity="1" fill-rule="nonzero"/></g></svg>