<svg xmlns="http://www.w3.org/2000/svg" xmlns:xlink="http://www.w3.org/1999/xlink" width="40" zoomAndPan="magnify" viewBox="0 0 30 30.000001" height="40" preserveAspectRatio="xMidYMid meet" version="1.0"><defs><clipPath id="285d640bf3"><path d="M 3.386719 4.542969 L 26.613281 4.542969 L 26.613281 24.140625 L 3.386719 24.140625 Z M 3.386719 4.542969 " clip-rule="nonzero"/></clipPath></defs><g clip-path="url(#285d640bf3)"><path fill="#b761bd" d="M 12.753906 5.761719 C 7.585938 5.761719 3.394531 9.949219 3.394531 15.121094 C 3.394531 20.289062 7.585938 24.480469 12.753906 24.480469 C 17.921875 24.480469 22.113281 20.289062 22.113281 15.121094 C 22.113281 14.960938 22.109375 14.804688 22.101562 14.648438 C 22.042969 14.652344 21.984375 14.652344 21.925781 14.652344 C 21.464844 14.652344 21.019531 14.59375 20.589844 14.488281 C 20.605469 14.695312 20.617188 14.90625 20.617188 15.121094 C 20.617188 17.007812 19.953125 18.738281 18.84375 20.09375 C 17.890625 17.660156 15.523438 15.933594 12.753906 15.933594 C 9.984375 15.933594 7.617188 17.660156 6.664062 20.09375 C 5.554688 18.738281 4.890625 17.007812 4.890625 15.121094 C 4.890625 10.777344 8.410156 7.257812 12.753906 7.257812 C 14.144531 7.257812 15.449219 7.621094 16.585938 8.253906 C 16.675781 7.742188 16.839844 7.257812 17.0625 6.808594 C 15.773438 6.140625 14.308594 5.761719 12.753906 5.761719 Z M 12.753906 8.917969 C 14.578125 8.917969 16.058594 10.398438 16.058594 12.222656 C 16.058594 14.050781 14.578125 15.527344 12.753906 15.527344 C 10.929688 15.527344 9.449219 14.050781 9.449219 12.222656 C 9.449219 10.398438 10.929688 8.917969 12.753906 8.917969 Z M 21.925781 4.542969 C 24.511719 4.542969 26.605469 6.640625 26.605469 9.222656 C 26.605469 11.808594 24.511719 13.902344 21.925781 13.902344 C 19.339844 13.902344 17.246094 11.808594 17.246094 9.222656 C 17.246094 6.640625 19.339844 4.542969 21.925781 4.542969 Z M 21.109375 10.039062 L 19.558594 10.039062 C 19.109375 10.039062 18.742188 9.671875 18.742188 9.222656 C 18.742188 8.773438 19.109375 8.40625 19.558594 8.40625 L 21.109375 8.40625 L 21.109375 6.855469 C 21.109375 6.40625 21.476562 6.039062 21.925781 6.039062 C 22.375 6.039062 22.742188 6.40625 22.742188 6.855469 L 22.742188 8.40625 L 24.292969 8.40625 C 24.742188 8.40625 25.109375 8.773438 25.109375 9.222656 C 25.109375 9.671875 24.742188 10.039062 24.292969 10.039062 L 22.742188 10.039062 L 22.742188 11.59375 C 22.742188 12.042969 22.375 12.40625 21.925781 12.40625 C 21.476562 12.40625 21.109375 12.042969 21.109375 11.59375 Z M 21.109375 10.039062 " fill-opacity="1" fill-rule="evenodd"/></g></svg>