<svg xmlns="http://www.w3.org/2000/svg" xmlns:xlink="http://www.w3.org/1999/xlink" width="40" zoomAndPan="magnify" viewBox="0 0 30 30.000001" height="40" preserveAspectRatio="xMidYMid meet" version="1.0"><defs><clipPath id="adce51f45f"><path d="M 5.664062 8.027344 L 24.328125 8.027344 L 24.328125 25.683594 L 5.664062 25.683594 Z M 5.664062 8.027344 " clip-rule="nonzero"/></clipPath><clipPath id="c96767c9fe"><path d="M 2.832031 3.351562 L 27.507812 3.351562 L 27.507812 15 L 2.832031 15 Z M 2.832031 3.351562 " clip-rule="nonzero"/></clipPath></defs><g clip-path="url(#adce51f45f)"><path fill="#b761bd" d="M 24.207031 16 L 15.398438 8.21875 C 15.167969 8.015625 14.824219 8.015625 14.597656 8.21875 L 5.785156 16 C 5.722656 16.058594 5.683594 16.140625 5.683594 16.226562 L 5.683594 25.382812 C 5.683594 25.546875 5.820312 25.683594 5.988281 25.683594 L 12.179688 25.683594 C 12.347656 25.683594 12.480469 25.546875 12.480469 25.382812 L 12.480469 19.535156 C 12.480469 18.867188 13.023438 18.328125 13.691406 18.328125 L 16.304688 18.328125 C 16.972656 18.328125 17.511719 18.867188 17.511719 19.535156 L 17.511719 25.382812 C 17.511719 25.546875 17.648438 25.683594 17.816406 25.683594 L 24.007812 25.683594 C 24.175781 25.683594 24.308594 25.546875 24.308594 25.382812 L 24.308594 16.226562 C 24.308594 16.140625 24.273438 16.058594 24.207031 16 " fill-opacity="1" fill-rule="nonzero"/></g><g clip-path="url(#c96767c9fe)"><path fill="#b761bd" d="M 26.636719 12.980469 L 16.589844 4.15625 C 15.679688 3.351562 14.316406 3.351562 13.402344 4.15625 L 3.359375 12.980469 C 2.863281 13.417969 2.839844 14.179688 3.304688 14.644531 C 3.730469 15.070312 4.414062 15.09375 4.867188 14.695312 L 14.199219 6.476562 C 14.65625 6.074219 15.339844 6.074219 15.796875 6.476562 L 25.128906 14.695312 C 25.578125 15.09375 26.261719 15.070312 26.6875 14.644531 C 27.15625 14.179688 27.128906 13.417969 26.636719 12.980469 " fill-opacity="1" fill-rule="nonzero"/></g></svg>