<svg xmlns="http://www.w3.org/2000/svg" xmlns:xlink="http://www.w3.org/1999/xlink" width="40" zoomAndPan="magnify" viewBox="0 0 30 30.000001" height="40" preserveAspectRatio="xMidYMid meet" version="1.0"><defs><clipPath id="2842eb19b7"><path d="M 5.828125 2.089844 L 23.972656 2.089844 L 23.972656 26.765625 L 5.828125 26.765625 Z M 5.828125 2.089844 " clip-rule="nonzero"/></clipPath></defs><g clip-path="url(#2842eb19b7)"><path fill="#b761bd" d="M 9.875 18.847656 L 7.347656 24.480469 C 7.296875 24.585938 7.3125 24.714844 7.382812 24.808594 C 7.453125 24.902344 7.570312 24.949219 7.6875 24.933594 L 10.332031 24.542969 C 10.332031 24.542969 11.796875 26.777344 11.796875 26.777344 C 11.863281 26.875 11.976562 26.933594 12.09375 26.921875 C 12.210938 26.914062 12.3125 26.839844 12.363281 26.734375 L 14.992188 20.875 L 17.625 26.734375 C 17.671875 26.839844 17.773438 26.914062 17.894531 26.921875 C 18.011719 26.933594 18.125 26.875 18.1875 26.777344 L 19.65625 24.542969 C 19.65625 24.542969 22.296875 24.933594 22.296875 24.933594 C 22.414062 24.949219 22.53125 24.902344 22.601562 24.808594 C 22.671875 24.714844 22.6875 24.585938 22.640625 24.480469 L 20.109375 18.847656 C 22.550781 17.203125 24.15625 14.410156 24.15625 11.25 C 24.15625 6.191406 20.050781 2.085938 14.992188 2.085938 C 9.9375 2.085938 5.832031 6.191406 5.832031 11.25 C 5.832031 14.410156 7.4375 17.203125 9.875 18.847656 Z M 19.554688 19.195312 C 18.347656 19.890625 16.960938 20.320312 15.488281 20.398438 L 17.972656 25.929688 L 19.226562 24.015625 C 19.296875 23.914062 19.417969 23.855469 19.542969 23.875 C 19.542969 23.875 21.808594 24.207031 21.808594 24.207031 Z M 10.429688 19.195312 L 8.175781 24.207031 L 10.441406 23.875 C 10.566406 23.855469 10.6875 23.914062 10.757812 24.015625 C 10.757812 24.015625 12.015625 25.929688 12.015625 25.929688 L 14.5 20.398438 C 13.023438 20.320312 11.640625 19.890625 10.429688 19.195312 Z M 14.992188 2.734375 C 19.691406 2.734375 23.507812 6.546875 23.507812 11.25 C 23.507812 15.949219 19.691406 19.765625 14.992188 19.765625 C 10.292969 19.765625 6.476562 15.949219 6.476562 11.25 C 6.476562 6.546875 10.292969 2.734375 14.992188 2.734375 Z M 14.992188 3.628906 C 10.785156 3.628906 7.371094 7.042969 7.371094 11.25 C 7.371094 15.453125 10.785156 18.867188 14.992188 18.867188 C 19.199219 18.867188 22.613281 15.453125 22.613281 11.25 C 22.613281 7.042969 19.199219 3.628906 14.992188 3.628906 Z M 14.992188 4.273438 C 18.84375 4.273438 21.96875 7.398438 21.96875 11.25 C 21.96875 15.097656 18.84375 18.222656 14.992188 18.222656 C 11.144531 18.222656 8.019531 15.097656 8.019531 11.25 C 8.019531 7.398438 11.144531 4.273438 14.992188 4.273438 Z M 15.285156 5.941406 C 15.234375 5.828125 15.121094 5.753906 14.992188 5.753906 C 14.867188 5.753906 14.75 5.828125 14.699219 5.941406 L 13.324219 8.945312 C 13.324219 8.945312 10.046875 9.324219 10.046875 9.324219 C 9.917969 9.335938 9.8125 9.425781 9.773438 9.542969 C 9.734375 9.664062 9.769531 9.796875 9.863281 9.882812 L 12.296875 12.117188 C 12.296875 12.117188 11.640625 15.351562 11.640625 15.351562 C 11.617188 15.476562 11.664062 15.605469 11.769531 15.679688 C 11.871094 15.753906 12.007812 15.761719 12.117188 15.699219 L 14.992188 14.074219 C 14.992188 14.074219 17.867188 15.699219 17.867188 15.699219 C 17.980469 15.761719 18.117188 15.753906 18.21875 15.679688 C 18.320312 15.605469 18.371094 15.476562 18.34375 15.351562 L 17.691406 12.117188 C 17.691406 12.117188 20.121094 9.882812 20.121094 9.882812 C 20.214844 9.796875 20.25 9.664062 20.210938 9.542969 C 20.171875 9.425781 20.066406 9.335938 19.941406 9.324219 L 16.660156 8.945312 C 16.660156 8.945312 15.285156 5.941406 15.285156 5.941406 Z M 14.992188 6.851562 L 16.148438 9.378906 C 16.195312 9.484375 16.292969 9.554688 16.40625 9.566406 L 19.164062 9.882812 C 19.164062 9.882812 17.117188 11.761719 17.117188 11.761719 C 17.035156 11.839844 16.996094 11.953125 17.019531 12.066406 L 17.570312 14.789062 C 17.570312 14.789062 15.152344 13.421875 15.152344 13.421875 C 15.054688 13.367188 14.933594 13.367188 14.835938 13.421875 L 12.414062 14.789062 C 12.414062 14.789062 12.964844 12.066406 12.964844 12.066406 C 12.988281 11.953125 12.949219 11.839844 12.867188 11.761719 L 10.820312 9.882812 C 10.820312 9.882812 13.582031 9.566406 13.582031 9.566406 C 13.695312 9.554688 13.789062 9.484375 13.835938 9.378906 Z M 14.992188 6.851562 " fill-opacity="1" fill-rule="evenodd"/></g></svg>