<svg xmlns="http://www.w3.org/2000/svg" xmlns:xlink="http://www.w3.org/1999/xlink" width="40" zoomAndPan="magnify" viewBox="0 0 30 30.000001" height="40" preserveAspectRatio="xMidYMid meet" version="1.0"><defs><clipPath id="1bb426efe6"><path d="M 4.042969 3.042969 L 25.820312 3.042969 L 25.820312 26 L 4.042969 26 Z M 4.042969 3.042969 " clip-rule="nonzero"/></clipPath></defs><g clip-path="url(#1bb426efe6)"><path fill="#b761bd" d="M 15.511719 3.035156 C 15.488281 3.039062 15.460938 3.039062 15.4375 3.042969 L 4.050781 3.042969 L 4.050781 25.988281 L 21.777344 25.988281 L 21.777344 22.539062 L 20.734375 23.363281 L 20.734375 24.945312 L 18.738281 24.945312 L 18.648438 25.015625 L 18.648438 24.945312 L 5.09375 24.945312 L 5.09375 4.085938 L 15 4.085938 L 15 9.824219 L 20.734375 9.824219 L 20.734375 12.445312 L 21.777344 13.273438 L 21.777344 9.085938 L 15.933594 3.242188 C 15.90625 3.203125 15.871094 3.171875 15.835938 3.144531 L 15.738281 3.042969 L 15.601562 3.042969 C 15.570312 3.039062 15.542969 3.035156 15.511719 3.035156 Z M 16.042969 4.824219 L 19.996094 8.78125 L 16.042969 8.78125 Z M 8.222656 12.429688 L 8.222656 13.472656 L 17.605469 13.472656 L 17.605469 12.429688 Z M 19.691406 12.949219 L 19.691406 16.078125 L 16.042969 16.078125 L 16.042969 19.730469 L 19.691406 19.730469 L 19.691406 22.859375 L 25.949219 17.90625 Z M 20.734375 15.105469 L 24.269531 17.90625 L 20.734375 20.703125 L 20.734375 18.6875 L 17.085938 18.6875 L 17.085938 17.121094 L 20.734375 17.121094 Z M 8.222656 15.558594 L 8.222656 16.601562 L 15 16.601562 L 15 15.558594 Z M 8.222656 18.6875 L 8.222656 19.730469 L 15 19.730469 L 15 18.6875 Z M 8.222656 18.6875 " fill-opacity="1" fill-rule="nonzero"/></g></svg>