<svg xmlns="http://www.w3.org/2000/svg" xmlns:xlink="http://www.w3.org/1999/xlink" width="40" zoomAndPan="magnify" viewBox="0 0 30 30.000001" height="40" preserveAspectRatio="xMidYMid meet" version="1.0"><defs><clipPath id="7699ce780c"><path d="M 4.351562 4 L 24 4 L 24 18 L 4.351562 18 Z M 4.351562 4 " clip-rule="nonzero"/></clipPath><clipPath id="b5742c5989"><path d="M 6 12 L 25.402344 12 L 25.402344 24.890625 L 6 24.890625 Z M 6 12 " clip-rule="nonzero"/></clipPath></defs><path fill="#b761bd" d="M 20.121094 16.605469 C 20.144531 16.496094 20.230469 16.433594 20.335938 16.410156 L 21.214844 16.324219 C 21.539062 16.28125 21.796875 16.003906 21.796875 15.683594 L 21.796875 14.308594 C 21.796875 13.988281 21.539062 13.707031 21.214844 13.664062 L 20.335938 13.578125 C 20.230469 13.558594 20.144531 13.496094 20.121094 13.386719 C 20.035156 13.085938 19.90625 12.785156 19.757812 12.527344 C 19.714844 12.441406 19.714844 12.316406 19.777344 12.25 L 20.335938 11.5625 C 20.550781 11.304688 20.53125 10.941406 20.292969 10.707031 L 19.308594 9.71875 C 19.070312 9.484375 18.707031 9.460938 18.449219 9.675781 L 17.761719 10.234375 C 17.675781 10.277344 17.570312 10.277344 17.484375 10.234375 C 17.203125 10.082031 16.925781 9.976562 16.625 9.867188 C 16.519531 9.847656 16.453125 9.761719 16.433594 9.65625 L 16.324219 8.773438 C 16.28125 8.453125 16.003906 8.195312 15.683594 8.195312 L 14.308594 8.195312 C 13.988281 8.195312 13.707031 8.453125 13.664062 8.773438 L 13.578125 9.65625 C 13.558594 9.761719 13.492188 9.847656 13.386719 9.867188 C 13.085938 9.953125 12.785156 10.082031 12.527344 10.234375 C 12.441406 10.277344 12.3125 10.277344 12.25 10.210938 L 11.5625 9.65625 C 11.304688 9.441406 10.941406 9.460938 10.707031 9.699219 L 9.71875 10.683594 C 9.484375 10.921875 9.460938 11.285156 9.675781 11.542969 L 10.234375 12.230469 C 10.296875 12.316406 10.296875 12.421875 10.253906 12.507812 C 10.105469 12.785156 9.996094 13.066406 9.890625 13.367188 C 9.867188 13.472656 9.78125 13.539062 9.675781 13.558594 L 8.773438 13.664062 C 8.453125 13.707031 8.195312 13.988281 8.195312 14.308594 L 8.195312 15.683594 C 8.195312 16.003906 8.453125 16.28125 8.773438 16.324219 L 9.652344 16.410156 C 9.761719 16.433594 9.847656 16.496094 9.867188 16.605469 C 9.953125 16.90625 10.082031 17.207031 10.234375 17.460938 C 10.277344 17.546875 10.277344 17.675781 10.210938 17.742188 L 9.652344 18.429688 C 9.441406 18.683594 9.460938 19.050781 9.695312 19.285156 L 10.683594 20.273438 C 10.917969 20.507812 11.285156 20.53125 11.542969 20.316406 L 12.226562 19.757812 C 12.3125 19.695312 12.421875 19.695312 12.507812 19.738281 C 12.785156 19.886719 13.066406 19.992188 13.363281 20.101562 C 13.472656 20.121094 13.535156 20.207031 13.558594 20.316406 L 13.644531 21.195312 C 13.6875 21.515625 13.964844 21.773438 14.289062 21.773438 L 15.660156 21.773438 C 15.980469 21.773438 16.261719 21.515625 16.304688 21.195312 L 16.390625 20.316406 C 16.410156 20.207031 16.476562 20.121094 16.582031 20.101562 C 16.882812 20.015625 17.183594 19.886719 17.441406 19.738281 C 17.527344 19.695312 17.65625 19.695312 17.71875 19.757812 L 18.40625 20.316406 C 18.664062 20.53125 19.027344 20.507812 19.265625 20.273438 L 20.25 19.285156 C 20.488281 19.050781 20.507812 18.683594 20.292969 18.429688 L 19.734375 17.742188 C 19.714844 17.675781 19.714844 17.570312 19.757812 17.484375 C 19.90625 17.207031 20.015625 16.90625 20.121094 16.605469 Z M 14.996094 17.613281 C 13.558594 17.613281 12.378906 16.433594 12.378906 14.996094 C 12.378906 13.558594 13.558594 12.378906 14.996094 12.378906 C 16.433594 12.378906 17.613281 13.558594 17.613281 14.996094 C 17.613281 16.433594 16.433594 17.613281 14.996094 17.613281 Z M 14.996094 17.613281 " fill-opacity="1" fill-rule="nonzero"/><g clip-path="url(#7699ce780c)"><path fill="#b761bd" d="M 8.667969 8.667969 C 12.035156 5.300781 17.441406 5.191406 20.957031 8.324219 L 20.464844 8.816406 C 20.335938 8.945312 20.292969 9.140625 20.335938 9.3125 C 20.378906 9.484375 20.53125 9.613281 20.703125 9.632812 L 23.019531 10.039062 C 23.039062 10.039062 23.082031 10.039062 23.105469 10.039062 C 23.230469 10.039062 23.359375 9.996094 23.445312 9.890625 C 23.554688 9.785156 23.597656 9.613281 23.574219 9.460938 L 23.167969 7.144531 C 23.148438 6.972656 23.019531 6.824219 22.847656 6.78125 C 22.675781 6.738281 22.480469 6.78125 22.351562 6.910156 L 21.839844 7.421875 C 17.828125 3.839844 11.648438 3.925781 7.789062 7.789062 C 5.40625 10.167969 4.355469 13.578125 4.976562 16.882812 C 5.042969 17.183594 5.300781 17.398438 5.578125 17.398438 C 5.621094 17.398438 5.664062 17.398438 5.6875 17.375 C 6.027344 17.3125 6.242188 16.992188 6.179688 16.648438 C 5.644531 13.75 6.566406 10.75 8.667969 8.667969 Z M 8.667969 8.667969 " fill-opacity="1" fill-rule="nonzero"/></g><g clip-path="url(#b5742c5989)"><path fill="#b761bd" d="M 25.011719 13.085938 C 24.949219 12.742188 24.625 12.527344 24.285156 12.59375 C 23.941406 12.65625 23.726562 12.980469 23.789062 13.324219 C 24.347656 16.238281 23.425781 19.222656 21.324219 21.324219 C 17.957031 24.691406 12.550781 24.796875 9.03125 21.667969 L 9.527344 21.171875 C 9.652344 21.042969 9.695312 20.851562 9.652344 20.679688 C 9.589844 20.507812 9.460938 20.378906 9.289062 20.359375 L 6.996094 19.949219 C 6.84375 19.929688 6.671875 19.972656 6.566406 20.078125 C 6.457031 20.1875 6.394531 20.359375 6.4375 20.507812 L 6.84375 22.824219 C 6.886719 22.996094 6.996094 23.148438 7.164062 23.191406 C 7.207031 23.210938 7.25 23.210938 7.316406 23.210938 C 7.445312 23.210938 7.574219 23.167969 7.660156 23.0625 L 8.175781 22.546875 C 10.105469 24.304688 12.550781 25.183594 14.996094 25.183594 C 17.613281 25.183594 20.207031 24.199219 22.203125 22.203125 C 24.582031 19.820312 25.636719 16.410156 25.011719 13.085938 Z M 25.011719 13.085938 " fill-opacity="1" fill-rule="nonzero"/></g></svg>