<svg xmlns="http://www.w3.org/2000/svg" xmlns:xlink="http://www.w3.org/1999/xlink" width="40" zoomAndPan="magnify" viewBox="0 0 30 30.000001" height="40" preserveAspectRatio="xMidYMid meet" version="1.0"><defs><clipPath id="a7cacb1863"><path d="M 3.386719 2.902344 L 26.613281 2.902344 L 26.613281 26.128906 L 3.386719 26.128906 Z M 3.386719 2.902344 " clip-rule="nonzero"/></clipPath></defs><g clip-path="url(#a7cacb1863)"><path fill="#b761bd" d="M 16.902344 5.714844 L 14.867188 5.714844 L 14.867188 4.527344 L 17.382812 4.527344 C 17.851562 4.527344 18.234375 4.910156 18.234375 5.382812 L 18.234375 12.167969 C 17.839844 12.132812 17.441406 12.140625 17.046875 12.1875 L 17.046875 5.859375 C 17.046875 5.78125 16.980469 5.714844 16.902344 5.714844 Z M 19.144531 16.339844 L 17.058594 18.230469 L 16.347656 17.519531 C 16.195312 17.371094 15.953125 17.371094 15.800781 17.519531 C 15.648438 17.671875 15.648438 17.914062 15.800781 18.066406 L 16.773438 19.039062 C 16.921875 19.1875 17.171875 19.1875 17.320312 19.035156 L 19.664062 16.910156 C 19.820312 16.765625 19.832031 16.523438 19.6875 16.363281 C 19.542969 16.207031 19.300781 16.195312 19.144531 16.339844 Z M 26.449219 24.980469 L 25.5 25.953125 C 25.335938 26.125 25.058594 26.128906 24.886719 25.964844 L 22.265625 23.417969 C 22.09375 23.253906 22.089844 22.976562 22.253906 22.804688 L 22.304688 22.75 L 20.84375 21.320312 C 20.011719 22.035156 18.925781 22.46875 17.738281 22.46875 C 15.101562 22.46875 12.964844 20.332031 12.964844 17.695312 C 12.964844 15.058594 15.101562 12.917969 17.738281 12.917969 C 20.375 12.917969 22.515625 15.058594 22.515625 17.695312 C 22.515625 18.710938 22.195312 19.652344 21.65625 20.425781 L 23.144531 21.886719 L 23.203125 21.828125 C 23.367188 21.65625 23.644531 21.652344 23.816406 21.820312 L 26.4375 24.363281 C 26.609375 24.53125 26.613281 24.808594 26.449219 24.980469 Z M 21.113281 17.695312 C 21.113281 15.828125 19.601562 14.316406 17.738281 14.316406 C 15.875 14.316406 14.363281 15.828125 14.363281 17.695312 C 14.363281 19.558594 15.875 21.070312 17.738281 21.070312 C 19.601562 21.070312 21.113281 19.558594 21.113281 17.695312 Z M 7.527344 6.085938 L 7.527344 4.15625 C 7.527344 4.078125 7.589844 4.011719 7.671875 4.011719 L 9.289062 4.011719 C 9.355469 4.011719 9.410156 3.972656 9.429688 3.910156 C 9.617188 3.328125 10.164062 2.902344 10.8125 2.902344 C 11.457031 2.902344 12.003906 3.328125 12.191406 3.910156 C 12.210938 3.972656 12.265625 4.011719 12.332031 4.011719 L 13.949219 4.011719 C 14.03125 4.011719 14.097656 4.078125 14.097656 4.15625 L 14.097656 6.085938 C 14.097656 6.164062 14.03125 6.230469 13.949219 6.230469 L 7.671875 6.230469 C 7.589844 6.230469 7.527344 6.164062 7.527344 6.085938 Z M 10.425781 4.09375 C 10.425781 4.304688 10.597656 4.476562 10.8125 4.476562 C 11.023438 4.476562 11.195312 4.304688 11.195312 4.09375 C 11.195312 3.878906 11.023438 3.707031 10.8125 3.707031 C 10.597656 3.707031 10.425781 3.878906 10.425781 4.09375 Z M 13.105469 20.75 L 4.71875 20.75 C 4.640625 20.75 4.574219 20.683594 4.574219 20.601562 L 4.574219 5.859375 C 4.574219 5.78125 4.640625 5.714844 4.71875 5.714844 L 6.753906 5.714844 L 6.753906 4.527344 L 4.242188 4.527344 C 3.769531 4.527344 3.386719 4.910156 3.386719 5.382812 L 3.386719 21.082031 C 3.386719 21.550781 3.769531 21.933594 4.242188 21.933594 L 14.160156 21.933594 C 13.757812 21.59375 13.398438 21.191406 13.105469 20.75 Z M 8.925781 10.542969 C 8.925781 10.699219 8.796875 10.824219 8.644531 10.824219 L 6.496094 10.824219 C 6.339844 10.824219 6.214844 10.699219 6.214844 10.542969 L 6.214844 8.394531 C 6.214844 8.242188 6.339844 8.113281 6.496094 8.113281 L 8.644531 8.113281 C 8.796875 8.113281 8.925781 8.242188 8.925781 8.394531 Z M 8.382812 8.753906 C 8.21875 8.621094 7.976562 8.644531 7.839844 8.8125 L 7.4375 9.308594 L 7.273438 9.140625 C 7.121094 8.988281 6.875 8.988281 6.726562 9.140625 C 6.574219 9.292969 6.574219 9.535156 6.726562 9.6875 L 7.195312 10.15625 C 7.359375 10.320312 7.628906 10.304688 7.769531 10.125 L 8.441406 9.296875 C 8.574219 9.132812 8.550781 8.886719 8.382812 8.753906 Z M 8.925781 14.890625 C 8.925781 15.042969 8.796875 15.171875 8.644531 15.171875 L 6.496094 15.171875 C 6.339844 15.171875 6.214844 15.042969 6.214844 14.890625 L 6.214844 12.742188 C 6.214844 12.585938 6.339844 12.460938 6.496094 12.460938 L 8.644531 12.460938 C 8.796875 12.460938 8.925781 12.585938 8.925781 12.742188 Z M 8.382812 13.101562 C 8.21875 12.964844 7.976562 12.992188 7.839844 13.15625 L 7.4375 13.65625 L 7.273438 13.488281 C 7.121094 13.335938 6.875 13.335938 6.726562 13.488281 C 6.574219 13.636719 6.574219 13.882812 6.726562 14.035156 L 7.195312 14.503906 C 7.359375 14.667969 7.628906 14.652344 7.769531 14.472656 L 8.441406 13.644531 C 8.574219 13.476562 8.550781 13.234375 8.382812 13.101562 Z M 8.925781 17.089844 L 8.925781 19.238281 C 8.925781 19.390625 8.796875 19.515625 8.644531 19.515625 L 6.496094 19.515625 C 6.339844 19.515625 6.214844 19.390625 6.214844 19.238281 L 6.214844 17.089844 C 6.214844 16.933594 6.339844 16.808594 6.496094 16.808594 L 8.644531 16.808594 C 8.796875 16.808594 8.925781 16.933594 8.925781 17.089844 Z M 8.382812 17.445312 C 8.21875 17.3125 7.976562 17.339844 7.839844 17.503906 L 7.4375 18 L 7.273438 17.835938 C 7.121094 17.683594 6.875 17.683594 6.726562 17.835938 C 6.574219 17.984375 6.574219 18.230469 6.726562 18.378906 L 7.195312 18.851562 C 7.359375 19.015625 7.628906 19 7.769531 18.820312 L 8.441406 17.992188 C 8.574219 17.824219 8.550781 17.582031 8.382812 17.445312 Z M 10.636719 17.777344 L 12.191406 17.777344 C 12.1875 17.515625 12.203125 17.261719 12.234375 17.003906 L 10.636719 17.003906 C 10.421875 17.003906 10.25 17.175781 10.25 17.390625 C 10.25 17.601562 10.421875 17.777344 10.636719 17.777344 Z M 15.40625 8.308594 L 10.636719 8.308594 C 10.421875 8.308594 10.25 8.484375 10.25 8.695312 C 10.25 8.910156 10.421875 9.082031 10.636719 9.082031 L 15.40625 9.082031 C 15.621094 9.082031 15.792969 8.910156 15.792969 8.695312 C 15.792969 8.484375 15.621094 8.308594 15.40625 8.308594 Z M 15.792969 10.242188 C 15.792969 10.027344 15.621094 9.855469 15.40625 9.855469 L 10.636719 9.855469 C 10.421875 9.855469 10.25 10.027344 10.25 10.242188 C 10.25 10.457031 10.421875 10.628906 10.636719 10.628906 L 15.40625 10.628906 C 15.621094 10.628906 15.792969 10.457031 15.792969 10.242188 Z M 15.410156 12.65625 L 10.636719 12.65625 C 10.421875 12.65625 10.25 12.828125 10.25 13.042969 C 10.25 13.257812 10.421875 13.429688 10.636719 13.429688 L 14.191406 13.429688 C 14.558594 13.121094 14.96875 12.859375 15.410156 12.65625 Z M 13.425781 14.203125 L 10.636719 14.203125 C 10.421875 14.203125 10.25 14.375 10.25 14.589844 C 10.25 14.800781 10.421875 14.976562 10.636719 14.976562 L 12.902344 14.976562 C 13.054688 14.703125 13.230469 14.445312 13.425781 14.203125 Z M 10.636719 19.320312 L 12.433594 19.320312 C 12.355469 19.070312 12.296875 18.8125 12.257812 18.550781 L 10.636719 18.550781 C 10.421875 18.550781 10.25 18.722656 10.25 18.9375 C 10.25 19.148438 10.421875 19.320312 10.636719 19.320312 Z M 10.636719 19.320312 " fill-opacity="1" fill-rule="evenodd"/></g></svg>